<?xml version="1.0" encoding="utf-8"?>
<!-- Generator: Adobe Illustrator 19.2.1, SVG Export Plug-In . SVG Version: 6.00 Build 0)  -->
<svg version="1.1" id="Capa_1" xmlns="http://www.w3.org/2000/svg" xmlns:xlink="http://www.w3.org/1999/xlink" x="0px" y="0px"
	 viewBox="0 0 24 24" style="enable-background:new 0 0 24 24;" xml:space="preserve">
<style type="text/css">
	.st0{fill:#FF5352;}
</style>
<title>tablet_mac</title>
<desc>Created with Sketch.</desc>
<g id="Icons">
	<g id="Rounded" transform="translate(-817.000000, -2502.000000)">
		<g id="Hardware" transform="translate(100.000000, 2404.000000)">
			<g>
				<path id="_xD83D__xDD39_-Icon-Color" class="st0" d="M731.6,100.5h-11.4c-1.1,0-2.1,0.9-2.1,2V118c0,1.1,0.9,2,2,2h11.4
					c1.1,0,2-0.9,2-2v-15.5C733.6,101.4,732.7,100.5,731.6,100.5z M725.9,119.3c-0.7,0-1.2-0.5-1.2-1.2c0-0.7,0.5-1.2,1.2-1.2
					s1.2,0.5,1.2,1.2C727.1,118.8,726.5,119.3,725.9,119.3z M732,115.9h-12.2v-13H732V115.9z"/>
			</g>
		</g>
	</g>
</g>
<image style="overflow:visible;" width="150" height="150" xlink:href="6A9740F5.jpg"  transform="matrix(1 0 0 1 82.3333 -93.3333)">
</image>
<g id="Hardware_1_" transform="translate(100.000000, 2404.000000)">
	<g id="Outlined-_x2F_-Hardware-_x2F_-phone_x5F_iphone" transform="translate(612.000000, 98.000000)">
		<g>
			<path id="_xD83D__xDD39_-Icon-Color_1_" class="st0" d="M-690.3-2494.2h-3c-0.5,0-0.9,0.4-0.9,0.9v6.3c0,0.5,0.4,0.9,0.9,0.9h3
				c0.5,0,0.9-0.4,0.9-0.9v-6.3C-689.4-2493.8-689.8-2494.2-690.3-2494.2z M-691.8-2486.4c-0.3,0-0.6-0.2-0.6-0.6
				c0-0.3,0.2-0.6,0.6-0.6s0.6,0.2,0.6,0.6C-691.2-2486.6-691.5-2486.4-691.8-2486.4z M-690.1-2487.9h-3.3v-5.2h3.3V-2487.9z"/>
		</g>
	</g>
</g>
</svg>
