<?xml version="1.0" encoding="utf-8"?>
<!-- Generator: Adobe Illustrator 19.2.1, SVG Export Plug-In . SVG Version: 6.00 Build 0)  -->
<svg version="1.1" id="Capa_1" xmlns="http://www.w3.org/2000/svg" xmlns:xlink="http://www.w3.org/1999/xlink" x="0px" y="0px"
	 viewBox="0 0 512 512" style="enable-background:new 0 0 512 512;" xml:space="preserve">
<style type="text/css">
	.st0{fill:#FF5352;}
</style>
<g>
	<path class="st0" d="M181,361.5h150v-90.3H181V361.5z M256,301.3c8.3,0,15,6.7,15,15s-6.7,15-15,15s-15-6.7-15-15
		S247.7,301.3,256,301.3z"/>
	<path class="st0" d="M463.7,60.5c-79,0-126.8-14.8-153-27.2C284,20.8,273.9,8.1,273,6.9c-5.5-8.6-17.4-9.3-23.9-1.2
		c-0.9,1-13,14.1-42.4,27.2c-28.3,12.6-78.8,27.6-158.4,27.6c-8.3,0-15,6.7-15,15v240.8c0,61.2,38.6,114.6,111.7,154.3
		c49.7,27,105.1,41.3,111,41.3c5.3,0,60.1-13.7,111-41.3c73.1-39.7,111.7-93.1,111.7-154.3V75.6C478.7,67.3,472,60.5,463.7,60.5z
		 M361,376.6c0,8.3-6.7,15-15,15H166c-8.3,0-15-6.7-15-15V256.2c0-8.3,6.7-15,15-15h15v-45.7c0-39.9,31.7-74.7,75.4-74.7
		c41.1,0,74.5,33.5,74.5,74.7c0,8.3-6.7,15-15,15s-15-6.7-15-15c0-23.5-18.5-44.6-45.4-44.6c-24.5,0-44.5,20-44.5,44.6v45.6h135
		c8.3,0,15,6.7,15,15V376.6z"/>
</g>
</svg>
