<?xml version="1.0" encoding="utf-8"?>
<!-- Generator: Adobe Illustrator 19.2.1, SVG Export Plug-In . SVG Version: 6.00 Build 0)  -->
<svg version="1.1" id="Layer_1" xmlns="http://www.w3.org/2000/svg" xmlns:xlink="http://www.w3.org/1999/xlink" x="0px" y="0px"
	 viewBox="0 0 512 512" style="enable-background:new 0 0 512 512;" xml:space="preserve">
<style type="text/css">
	.st0{fill:#44BA7D;}
</style>
<g>
	<g>
		<path class="st0" d="M453,325.5l-42-95.1h-1c-22,0-39.9-17.9-39.9-39.9v-16.8c0-10.5-8.5-19-19-19H160.8c-10.5,0-19,8.5-19,19
			v16.8c0,22-17.9,39.9-39.9,39.9h-1l-42,95.1c-10.1,22.9-15.3,47.3-15.3,72.3v31.4c0,16,13,29.1,29.1,29.1h366.3
			c16,0,29.1-13,29.1-29.1v-31.4C468.2,372.8,463.1,348.5,453,325.5z M190.1,403c-11.5,0-20.9-9.3-20.9-20.9s9.3-20.9,20.9-20.9
			c11.5,0,20.9,9.3,20.9,20.9C211,393.7,201.6,403,190.1,403z M190.1,339.6c-11.5,0-20.9-9.3-20.9-20.9s9.3-20.9,20.9-20.9
			c11.5,0,20.9,9.3,20.9,20.9C211,330.2,201.6,339.6,190.1,339.6z M190.1,276.1c-11.5,0-20.9-9.3-20.9-20.9s9.3-20.9,20.9-20.9
			c11.5,0,20.9,9.3,20.9,20.9C211,266.7,201.6,276.1,190.1,276.1z M256,403c-11.5,0-20.9-9.3-20.9-20.9s9.3-20.9,20.9-20.9
			s20.9,9.3,20.9,20.9C276.9,393.7,267.5,403,256,403z M256,339.6c-11.5,0-20.9-9.3-20.9-20.9s9.3-20.9,20.9-20.9
			s20.9,9.3,20.9,20.9C276.9,330.2,267.5,339.6,256,339.6z M256,276.1c-11.5,0-20.9-9.3-20.9-20.9s9.3-20.9,20.9-20.9
			s20.9,9.3,20.9,20.9C276.9,266.7,267.5,276.1,256,276.1z M321.9,403c-11.5,0-20.9-9.3-20.9-20.9s9.3-20.9,20.9-20.9
			s20.9,9.3,20.9,20.9S333.4,403,321.9,403z M321.9,339.6c-11.5,0-20.9-9.3-20.9-20.9s9.3-20.9,20.9-20.9s20.9,9.3,20.9,20.9
			C342.8,330.2,333.4,339.6,321.9,339.6z M321.9,276.1c-11.5,0-20.9-9.3-20.9-20.9s9.3-20.9,20.9-20.9s20.9,9.3,20.9,20.9
			S333.4,276.1,321.9,276.1z"/>
	</g>
</g>
<g>
	<g>
		<path class="st0" d="M378.6,53.7H133.4c-58.1,0-107.7,37.4-125.9,89.4h119.7c8.3-9.1,20.3-14.9,33.6-14.9h190.3
			c13.3,0,25.3,5.7,33.6,14.9h119.7C486.3,91.1,436.7,53.7,378.6,53.7z"/>
	</g>
</g>
<g>
	<g>
		<path class="st0" d="M510.4,166.4H396.1c0.4,2.4,0.6,4.8,0.6,7.3v16.8c0,7.4,6,13.3,13.3,13.3h85.3c9.2,0,16.7-7.5,16.7-16.8
			C512,180.1,511.4,173.2,510.4,166.4z"/>
	</g>
</g>
<g>
	<g>
		<path class="st0" d="M1.6,166.4C0.6,173.2,0,180.1,0,187.2c0,9.2,7.5,16.8,16.8,16.8H102c7.3,0,13.3-6,13.3-13.3v-16.8
			c0-2.5,0.2-4.9,0.6-7.3L1.6,166.4L1.6,166.4z"/>
	</g>
</g>
</svg>
