<svg id="svg" version="1.1" xmlns="http://www.w3.org/2000/svg" xmlns:xlink="http://www.w3.org/1999/xlink" width="400" height="400" viewBox="0, 0, 400,400"><g id="svgg"><path id="path0" d="M107.455 58.200 C 107.294 58.622,106.636 58.800,105.241 58.800 C 104.124 58.800,103.025 59.032,102.725 59.332 C 102.433 59.625,101.518 59.974,100.692 60.108 C 99.867 60.241,98.911 60.632,98.567 60.976 C 98.224 61.319,97.629 61.600,97.246 61.600 C 96.863 61.600,96.032 62.140,95.400 62.800 C 94.768 63.460,93.998 64.000,93.690 64.000 C 92.901 64.000,90.000 66.832,90.000 67.602 C 90.000 68.450,89.211 69.200,88.320 69.200 C 87.827 69.200,87.600 69.502,87.600 70.157 C 87.600 70.684,87.330 71.218,87.000 71.345 C 86.627 71.488,86.400 72.098,86.400 72.959 C 86.400 73.720,86.160 74.582,85.867 74.875 C 85.575 75.168,85.211 75.901,85.060 76.504 C 84.909 77.107,84.608 77.600,84.392 77.600 C 83.666 77.600,83.873 321.930,84.600 322.657 C 84.930 322.987,85.200 323.582,85.200 323.980 C 85.200 324.377,85.470 324.926,85.800 325.200 C 86.130 325.474,86.400 326.284,86.400 327.000 C 86.400 327.716,86.659 328.517,86.976 328.780 C 87.293 329.043,87.608 329.643,87.676 330.113 C 87.753 330.642,88.181 331.056,88.800 331.200 C 89.442 331.350,89.847 331.757,89.931 332.339 C 90.082 333.386,92.700 335.973,93.625 335.989 C 93.969 335.995,94.768 336.540,95.400 337.200 C 96.032 337.860,96.803 338.400,97.112 338.400 C 97.421 338.400,98.131 338.760,98.691 339.200 C 99.250 339.640,100.202 340.000,100.805 340.000 C 101.408 340.000,102.126 340.270,102.400 340.600 C 102.730 340.998,103.626 341.200,105.062 341.200 C 106.616 341.200,107.290 341.369,107.455 341.800 C 107.806 342.713,283.242 342.713,284.000 341.800 C 284.315 341.421,285.197 341.200,286.400 341.200 C 287.556 341.200,288.487 340.977,288.774 340.631 C 289.034 340.318,289.945 339.944,290.800 339.800 C 291.655 339.656,292.566 339.282,292.826 338.969 C 293.086 338.656,293.602 338.400,293.974 338.400 C 294.346 338.400,295.168 337.860,295.800 337.200 C 296.432 336.540,297.270 336.000,297.662 336.000 C 298.581 336.000,301.200 333.386,301.200 332.468 C 301.200 332.080,301.732 331.321,302.383 330.781 C 303.034 330.242,303.574 329.406,303.583 328.924 C 303.592 328.442,303.781 327.935,304.003 327.798 C 304.486 327.500,306.000 324.448,306.000 323.774 C 306.000 323.512,306.270 323.074,306.600 322.800 C 306.984 322.482,307.200 321.597,307.200 320.347 C 307.200 318.887,307.403 318.219,308.000 317.707 C 309.264 316.625,309.264 83.664,308.000 82.400 C 307.413 81.813,307.200 81.067,307.200 79.600 C 307.200 78.500,307.032 77.600,306.827 77.600 C 306.622 77.600,306.337 77.195,306.195 76.700 C 305.753 75.165,304.446 72.476,304.013 72.208 C 303.786 72.068,303.600 71.637,303.600 71.251 C 303.600 70.865,303.060 70.032,302.400 69.400 C 301.740 68.768,301.200 67.924,301.200 67.525 C 301.200 66.751,299.866 65.200,299.200 65.200 C 298.980 65.200,298.800 64.930,298.800 64.600 C 298.800 64.240,298.431 64.000,297.875 64.000 C 297.366 64.000,296.432 63.460,295.800 62.800 C 295.168 62.140,294.346 61.600,293.974 61.600 C 293.602 61.600,293.073 61.328,292.797 60.996 C 292.522 60.664,291.603 60.282,290.756 60.147 C 289.908 60.011,289.010 59.653,288.759 59.350 C 288.477 59.011,287.495 58.800,286.194 58.800 C 284.689 58.800,284.020 58.628,283.855 58.200 C 283.652 57.669,273.482 57.600,195.655 57.600 C 117.829 57.600,107.659 57.669,107.455 58.200 M283.055 77.400 C 283.182 77.730,283.631 78.000,284.053 78.000 C 284.476 78.000,285.626 78.805,286.611 79.789 L 288.400 81.579 288.400 200.043 L 288.400 318.508 286.010 320.854 L 283.619 323.200 195.453 323.200 C 121.554 323.200,107.252 323.112,107.077 322.657 C 106.963 322.358,106.313 322.003,105.634 321.867 C 104.641 321.668,104.400 321.420,104.400 320.597 C 104.400 320.035,104.130 319.471,103.800 319.345 C 103.269 319.141,103.200 305.510,103.200 200.000 C 103.200 94.490,103.269 80.859,103.800 80.655 C 104.130 80.529,104.400 79.984,104.400 79.444 C 104.400 78.685,104.665 78.405,105.572 78.206 C 106.217 78.064,106.959 77.690,107.221 77.374 C 107.960 76.484,282.714 76.510,283.055 77.400 M121.467 97.867 C 121.320 98.013,121.200 112.953,121.200 131.067 L 121.200 164.000 183.574 164.000 L 245.948 164.000 249.600 160.400 C 251.608 158.420,253.509 156.800,253.822 156.800 C 254.136 156.800,257.905 153.280,262.196 148.978 L 270.000 141.156 270.000 119.378 L 270.000 97.600 195.867 97.600 C 155.093 97.600,121.613 97.720,121.467 97.867 M248.977 119.289 C 250.111 120.908,249.887 141.302,248.723 142.386 C 247.848 143.201,247.730 143.203,195.023 143.101 L 142.200 143.000 142.094 131.205 C 142.035 124.717,142.075 119.182,142.181 118.905 C 142.336 118.502,153.083 118.400,195.365 118.400 L 248.355 118.400 248.977 119.289 M219.075 176.982 C 212.610 179.162,207.810 184.314,205.678 191.364 C 204.263 196.041,204.813 204.623,206.669 206.831 C 206.961 207.179,207.200 207.732,207.200 208.061 C 207.200 208.822,212.301 214.000,213.052 214.000 C 213.209 214.000,213.621 214.241,213.969 214.535 C 217.478 217.508,235.616 216.222,232.571 213.215 C 232.159 212.809,228.443 213.455,227.820 214.042 C 226.626 215.166,217.777 214.062,215.200 212.467 C 213.189 211.223,210.732 209.077,210.372 208.249 C 210.168 207.782,209.830 207.130,209.620 206.800 C 206.579 202.022,207.105 191.720,210.674 186.176 C 217.323 175.847,234.205 175.082,238.894 184.897 C 239.236 185.614,239.760 186.722,240.058 187.361 C 240.780 188.906,240.813 197.347,240.100 198.060 C 239.825 198.335,239.600 198.962,239.600 199.453 C 239.600 200.764,235.933 204.400,234.612 204.400 C 231.805 204.400,230.650 200.679,232.004 195.997 C 232.997 192.564,233.688 186.702,233.140 186.363 C 231.337 185.249,224.434 185.499,221.530 186.784 C 219.833 187.535,216.000 190.834,216.000 191.544 C 216.000 191.741,215.742 192.117,215.426 192.379 C 215.110 192.641,214.729 193.428,214.580 194.128 C 214.430 194.827,214.140 195.608,213.936 195.863 C 213.731 196.117,213.535 197.384,213.499 198.678 C 213.284 206.433,220.934 209.146,226.969 203.455 C 228.699 201.824,229.003 201.854,229.367 203.696 C 230.727 210.577,241.281 205.285,243.049 196.836 C 246.058 182.452,233.557 172.100,219.075 176.982 M229.851 188.590 C 230.875 191.256,228.278 199.201,225.518 201.848 C 218.813 208.278,213.401 199.530,219.338 191.860 C 221.884 188.572,228.996 186.360,229.851 188.590 M121.293 200.100 L 121.400 210.200 158.300 210.302 L 195.200 210.404 195.200 200.202 L 195.200 190.000 158.193 190.000 L 121.186 190.000 121.293 200.100 M248.256 227.704 C 248.107 232.157,247.815 237.060,247.606 238.600 C 247.160 241.888,247.077 255.194,247.506 254.579 C 247.839 254.103,251.513 251.600,251.879 251.600 C 252.010 251.600,252.886 250.970,253.826 250.200 C 256.069 248.362,257.995 248.445,258.002 250.380 C 258.004 250.721,258.291 251.540,258.640 252.200 C 258.989 252.860,259.626 254.300,260.055 255.400 C 261.182 258.285,261.939 260.042,262.611 261.332 C 262.935 261.955,263.200 262.800,263.200 263.209 C 263.200 263.618,263.356 264.049,263.547 264.167 C 263.738 264.285,264.668 266.366,265.614 268.791 C 266.561 271.216,267.548 273.200,267.808 273.200 C 268.540 273.200,270.903 272.330,271.881 271.700 L 272.762 271.133 271.970 269.066 C 271.534 267.930,271.013 266.640,270.811 266.200 C 270.609 265.760,270.064 264.500,269.600 263.400 C 269.136 262.300,268.596 261.040,268.401 260.600 C 268.205 260.160,267.386 258.180,266.580 256.200 C 264.871 252.002,264.112 250.232,263.351 248.668 C 262.503 246.924,262.640 245.648,263.700 245.432 C 264.195 245.331,265.140 245.136,265.800 244.999 C 266.460 244.862,267.990 244.566,269.200 244.341 C 270.410 244.116,271.805 243.854,272.300 243.758 C 274.016 243.427,273.576 242.704,269.320 238.870 C 268.264 237.918,265.851 235.668,263.957 233.870 C 262.063 232.071,259.813 229.995,258.957 229.255 C 256.331 226.985,251.169 222.272,249.812 220.904 L 248.527 219.608 248.256 227.704 M121.467 238.667 C 121.320 238.813,121.200 243.403,121.200 248.867 L 121.200 258.800 157.400 258.800 C 193.067 258.800,193.612 258.788,194.400 258.000 C 195.155 257.245,195.200 256.667,195.200 247.800 L 195.200 238.400 158.467 238.400 C 138.263 238.400,121.613 238.520,121.467 238.667 M121.467 283.467 C 120.702 284.232,121.192 301.992,122.000 302.800 C 122.794 303.594,123.333 303.600,195.600 303.600 C 267.867 303.600,268.406 303.594,269.200 302.800 C 269.955 302.045,270.000 301.467,270.000 292.600 L 270.000 283.200 195.867 283.200 C 155.093 283.200,121.613 283.320,121.467 283.467 " stroke="none" fill="#f8fafb" fill-rule="evenodd"></path><path id="path1" d="M0.000 200.000 L 0.000 400.000 200.000 400.000 L 400.000 400.000 400.000 200.000 L 400.000 0.000 200.000 0.000 L 0.000 0.000 0.000 200.000 M289.090 57.700 C 289.515 58.085,290.153 58.400,290.508 58.400 C 290.863 58.400,291.264 58.580,291.400 58.800 C 291.536 59.020,291.975 59.200,292.375 59.200 C 292.775 59.200,293.326 59.470,293.600 59.800 C 293.874 60.130,294.391 60.406,294.749 60.413 C 295.107 60.420,296.021 61.050,296.781 61.813 C 297.540 62.576,298.485 63.200,298.881 63.200 C 299.276 63.200,299.600 63.470,299.600 63.800 C 299.600 64.130,299.870 64.400,300.200 64.400 C 300.530 64.400,300.800 64.670,300.800 65.000 C 300.800 65.330,301.070 65.600,301.400 65.600 C 301.730 65.600,302.000 65.929,302.000 66.330 C 302.000 66.732,302.466 67.497,303.035 68.030 C 303.604 68.564,304.330 69.540,304.648 70.200 C 304.965 70.860,305.639 72.120,306.144 73.000 C 306.650 73.880,307.188 75.095,307.339 75.700 C 307.491 76.305,307.792 76.800,308.008 76.800 C 308.223 76.800,308.400 77.796,308.400 79.013 C 308.400 80.610,308.567 81.289,309.000 81.455 C 309.913 81.806,309.913 318.042,309.000 318.800 C 308.621 319.115,308.400 319.997,308.400 321.200 C 308.400 322.403,308.179 323.285,307.800 323.600 C 307.470 323.874,307.200 324.318,307.200 324.586 C 307.200 324.855,306.753 325.867,306.207 326.837 C 305.660 327.807,305.032 329.013,304.809 329.519 C 304.587 330.024,303.865 331.014,303.205 331.719 C 302.544 332.423,302.003 333.315,302.002 333.700 C 302.001 334.085,301.730 334.400,301.400 334.400 C 301.070 334.400,300.800 334.580,300.800 334.800 C 300.800 335.373,299.416 336.678,298.498 336.969 C 298.068 337.105,297.195 337.748,296.558 338.397 C 295.921 339.047,295.107 339.583,294.749 339.589 C 294.391 339.595,293.874 339.870,293.600 340.200 C 293.326 340.530,292.775 340.800,292.375 340.800 C 291.975 340.800,291.549 340.960,291.428 341.155 C 291.307 341.350,290.532 341.636,289.704 341.790 C 288.877 341.945,287.947 342.280,287.638 342.536 C 286.576 343.414,103.123 343.180,102.243 342.300 C 101.858 341.915,101.206 341.600,100.795 341.600 C 100.384 341.600,99.936 341.420,99.800 341.200 C 99.664 340.980,99.281 340.800,98.948 340.800 C 98.615 340.800,98.073 340.530,97.743 340.200 C 97.413 339.870,96.796 339.600,96.371 339.600 C 95.947 339.600,95.600 339.373,95.600 339.095 C 95.600 338.602,95.369 338.435,92.975 337.200 C 91.611 336.497,90.400 335.368,90.400 334.800 C 90.400 334.580,90.130 334.400,89.800 334.400 C 89.470 334.400,89.200 334.076,89.200 333.680 C 89.200 332.758,88.442 332.000,87.520 332.000 C 86.987 332.000,86.800 331.689,86.800 330.800 C 86.800 330.000,86.600 329.600,86.200 329.600 C 85.870 329.600,85.600 329.328,85.600 328.995 C 85.600 328.441,85.250 327.612,84.335 326.000 C 83.890 325.214,83.807 324.987,83.045 322.454 C 82.458 320.500,82.400 309.538,82.400 200.021 L 82.400 79.735 83.237 77.067 C 83.698 75.600,84.238 74.400,84.437 74.400 C 84.637 74.400,84.800 73.950,84.800 73.400 C 84.800 72.850,84.980 72.400,85.200 72.400 C 85.420 72.400,85.600 72.034,85.600 71.587 C 85.600 71.141,85.870 70.671,86.200 70.545 C 86.542 70.413,86.800 69.817,86.800 69.157 C 86.800 68.310,86.993 68.000,87.520 68.000 C 88.362 68.000,89.200 67.262,89.200 66.520 C 89.200 65.908,90.623 64.400,91.200 64.400 C 91.420 64.400,91.600 64.130,91.600 63.800 C 91.600 63.470,91.951 63.200,92.381 63.200 C 92.810 63.200,93.773 62.570,94.521 61.800 C 95.269 61.030,96.273 60.400,96.753 60.400 C 97.233 60.400,97.728 60.131,97.854 59.803 C 97.980 59.475,98.988 58.938,100.093 58.609 C 101.198 58.281,102.309 57.841,102.562 57.632 C 103.877 56.540,287.883 56.608,289.090 57.700 M106.900 78.936 C 105.859 79.464,105.200 80.075,105.200 80.512 C 105.200 80.904,104.930 81.329,104.600 81.455 C 103.686 81.806,103.686 318.194,104.600 318.545 C 104.930 318.671,105.200 319.096,105.200 319.488 C 105.200 319.919,105.872 320.557,106.900 321.102 L 108.600 322.002 195.814 322.001 L 283.027 322.000 285.114 319.887 L 287.200 317.775 287.200 199.970 L 287.200 82.165 285.636 80.682 C 284.775 79.867,283.780 79.200,283.423 79.200 C 283.067 79.200,282.671 78.930,282.545 78.600 C 282.341 78.069,272.317 78.004,195.457 78.036 L 108.600 78.072 106.900 78.936 M270.957 97.433 C 271.091 97.781,271.200 107.867,271.200 119.846 L 271.200 141.627 269.800 143.027 C 269.030 143.797,268.400 144.601,268.400 144.813 C 268.400 145.026,268.220 145.200,268.000 145.200 C 267.481 145.200,266.000 146.681,266.000 147.200 C 266.000 147.420,265.828 147.600,265.617 147.600 C 265.107 147.600,257.200 155.494,257.200 156.003 C 257.200 156.221,256.949 156.400,256.643 156.400 C 256.336 156.400,255.982 156.670,255.855 157.000 C 255.729 157.330,255.169 157.600,254.613 157.600 C 253.979 157.600,253.600 157.825,253.600 158.200 C 253.600 158.530,253.420 158.800,253.200 158.800 C 252.980 158.800,251.359 160.241,249.599 162.001 L 246.398 165.202 183.499 165.101 L 120.600 165.000 120.498 130.900 L 120.396 96.800 195.555 96.800 C 263.722 96.800,270.737 96.859,270.957 97.433 M143.467 120.267 C 143.320 120.413,143.200 125.273,143.200 131.067 L 143.200 141.600 195.400 141.600 L 247.600 141.600 247.600 130.800 L 247.600 120.000 195.667 120.000 C 167.103 120.000,143.613 120.120,143.467 120.267 M229.343 174.600 C 229.719 174.977,230.703 175.200,231.984 175.200 C 233.356 175.200,234.095 175.382,234.238 175.755 C 234.355 176.060,234.956 176.411,235.573 176.535 C 236.699 176.760,242.400 181.903,242.400 182.694 C 242.400 182.918,242.670 183.326,243.000 183.600 C 243.330 183.874,243.600 184.687,243.600 185.406 C 243.600 186.200,243.836 186.805,244.200 186.945 C 244.694 187.134,244.800 188.168,244.800 192.787 C 244.800 197.510,244.705 198.400,244.200 198.400 C 243.783 198.400,243.600 198.819,243.600 199.771 C 243.600 200.526,243.330 201.413,243.000 201.743 C 242.670 202.073,242.400 202.465,242.400 202.615 C 242.400 203.097,240.617 204.786,240.100 204.793 C 239.825 204.797,239.594 205.025,239.587 205.300 C 239.521 207.948,229.613 208.385,228.956 205.769 C 228.685 204.687,227.423 204.442,227.055 205.400 C 226.929 205.730,226.468 206.000,226.032 206.000 C 225.596 206.000,225.065 206.313,224.851 206.695 C 224.269 207.735,216.184 207.739,215.424 206.700 C 215.142 206.315,214.707 206.000,214.456 206.000 C 214.205 206.000,214.000 205.795,214.000 205.544 C 214.000 205.293,213.691 204.862,213.313 204.586 C 212.289 203.837,212.279 195.058,213.300 193.498 C 213.685 192.909,214.000 192.169,214.000 191.852 C 214.000 191.080,218.568 186.400,219.321 186.400 C 219.647 186.400,220.018 186.130,220.145 185.800 C 220.281 185.445,220.882 185.200,221.616 185.200 C 222.299 185.200,223.127 184.930,223.457 184.600 C 224.303 183.754,231.810 183.729,232.134 184.571 C 232.254 184.885,232.858 185.200,233.476 185.271 C 234.856 185.429,235.446 190.897,234.216 192.127 C 233.781 192.562,233.600 193.550,233.600 195.495 C 233.600 197.296,233.397 198.516,233.013 199.024 C 232.229 200.060,232.254 201.020,233.089 201.995 C 233.899 202.942,235.921 203.073,236.255 202.200 C 236.382 201.870,236.736 201.600,237.043 201.600 C 237.363 201.600,237.600 201.195,237.600 200.649 C 237.600 200.126,237.870 199.474,238.200 199.200 C 238.546 198.913,238.800 198.040,238.800 197.138 C 238.800 196.118,239.008 195.495,239.400 195.345 C 239.817 195.185,240.000 194.533,240.000 193.206 C 240.000 191.998,239.780 191.115,239.400 190.800 C 239.038 190.500,238.800 189.624,238.800 188.594 C 238.800 187.444,238.604 186.810,238.200 186.655 C 237.870 186.529,237.600 186.137,237.600 185.784 C 237.600 185.431,237.375 184.908,237.100 184.620 C 236.825 184.333,236.335 183.716,236.012 183.249 C 235.688 182.782,235.202 182.400,234.932 182.400 C 234.661 182.400,234.296 182.175,234.120 181.900 C 233.575 181.048,231.201 180.000,229.817 180.000 C 229.091 180.000,228.274 179.730,228.000 179.400 C 227.365 178.634,224.842 178.642,223.824 179.413 C 223.396 179.736,222.271 180.000,221.324 180.000 C 220.376 180.000,219.600 180.177,219.600 180.392 C 219.600 180.608,219.111 180.907,218.513 181.057 C 217.916 181.207,217.241 181.484,217.013 181.673 C 216.786 181.861,216.167 182.371,215.639 182.807 C 215.110 183.243,214.455 183.600,214.182 183.600 C 213.910 183.600,213.574 184.050,213.436 184.600 C 213.298 185.150,213.008 185.600,212.792 185.600 C 212.577 185.600,212.400 185.876,212.400 186.213 C 212.400 186.549,212.130 186.929,211.800 187.055 C 211.470 187.182,211.200 187.613,211.200 188.014 C 211.200 188.415,210.930 189.013,210.600 189.343 C 210.270 189.673,210.000 190.573,210.000 191.343 C 210.000 192.113,209.730 193.013,209.400 193.343 C 208.562 194.181,208.572 201.064,209.413 202.176 C 209.736 202.604,210.000 203.436,210.000 204.027 C 210.000 204.618,210.270 205.326,210.600 205.600 C 210.930 205.874,211.200 206.337,211.200 206.630 C 211.200 207.334,215.083 211.200,215.790 211.200 C 216.094 211.200,216.658 211.515,217.043 211.900 C 218.234 213.092,226.823 213.157,229.526 211.994 C 231.898 210.973,233.600 211.146,233.600 212.408 C 233.600 212.843,233.780 213.200,234.000 213.200 C 234.560 213.200,234.500 214.940,233.920 215.520 C 233.656 215.784,232.846 216.000,232.120 216.000 C 231.251 216.000,230.800 216.193,230.800 216.564 C 230.800 217.871,216.329 217.900,215.356 216.596 C 215.112 216.268,214.437 216.000,213.856 216.000 C 213.184 216.000,212.800 215.782,212.800 215.400 C 212.800 215.044,212.433 214.800,211.897 214.800 C 210.772 214.800,206.400 210.346,206.400 209.200 C 206.400 208.756,206.133 208.400,205.800 208.400 C 205.422 208.400,205.200 208.019,205.200 207.371 C 205.200 206.806,204.930 206.073,204.600 205.743 C 204.111 205.254,204.000 203.811,204.000 197.959 C 204.000 191.942,204.097 190.737,204.600 190.545 C 204.992 190.394,205.200 189.771,205.200 188.745 C 205.200 187.718,205.408 187.095,205.800 186.945 C 206.130 186.818,206.400 186.396,206.400 186.006 C 206.400 185.617,206.670 185.074,207.000 184.800 C 207.330 184.526,207.600 184.117,207.600 183.890 C 207.600 183.159,213.569 177.600,214.354 177.600 C 214.772 177.600,215.218 177.330,215.345 177.000 C 215.471 176.670,216.009 176.400,216.538 176.400 C 217.068 176.400,217.726 176.130,218.000 175.800 C 218.320 175.415,219.206 175.200,220.478 175.200 C 221.704 175.200,222.685 174.972,223.057 174.600 C 223.465 174.193,224.473 174.000,226.200 174.000 C 227.927 174.000,228.935 174.193,229.343 174.600 M195.986 189.574 C 196.430 190.403,196.573 208.715,196.147 210.302 L 195.906 211.204 158.253 211.102 L 120.600 211.000 120.493 200.406 C 120.434 194.580,120.474 189.585,120.581 189.306 C 120.956 188.328,195.461 188.592,195.986 189.574 M225.684 189.415 C 225.401 189.737,224.748 190.000,224.233 190.000 C 223.719 190.000,223.074 190.270,222.800 190.600 C 222.526 190.930,222.054 191.200,221.751 191.200 C 221.448 191.200,221.200 191.387,221.200 191.616 C 221.200 192.090,219.555 194.531,219.100 194.733 C 218.445 195.024,218.774 201.160,219.489 201.995 C 220.880 203.620,226.400 200.855,226.400 198.533 C 226.400 198.226,226.670 197.871,227.000 197.745 C 227.431 197.579,227.600 196.904,227.600 195.345 C 227.600 193.785,227.769 193.110,228.200 192.945 C 228.933 192.663,229.021 189.981,228.320 189.280 C 227.670 188.630,226.315 188.700,225.684 189.415 M250.193 219.767 C 250.945 220.518,251.929 221.251,252.380 221.394 C 252.831 221.537,253.201 221.777,253.202 221.927 C 253.205 222.374,255.926 225.200,256.353 225.200 C 256.569 225.200,256.848 225.520,256.972 225.911 C 257.096 226.302,257.588 226.887,258.065 227.211 C 258.543 227.535,259.703 228.565,260.644 229.500 C 261.584 230.435,262.487 231.200,262.651 231.200 C 263.151 231.200,264.800 232.908,264.800 233.426 C 264.800 233.694,265.219 234.018,265.731 234.147 C 266.244 234.276,266.870 234.835,267.123 235.390 C 267.376 235.946,267.735 236.400,267.921 236.400 C 268.106 236.400,269.222 237.300,270.400 238.400 C 271.578 239.500,272.690 240.400,272.871 240.400 C 273.052 240.400,273.200 240.670,273.200 241.000 C 273.200 241.330,273.419 241.600,273.687 241.600 C 274.432 241.600,275.978 243.591,275.732 244.233 C 275.612 244.545,275.030 244.800,274.437 244.800 C 273.845 244.800,273.183 244.977,272.968 245.192 C 272.752 245.408,270.736 245.705,268.488 245.852 C 263.951 246.150,263.872 246.218,265.200 248.696 C 265.640 249.516,266.006 250.461,266.013 250.794 C 266.020 251.127,266.290 251.749,266.613 252.176 C 266.936 252.604,267.200 253.346,267.200 253.827 C 267.200 254.308,267.470 254.926,267.800 255.200 C 268.130 255.474,268.400 256.049,268.400 256.478 C 268.400 256.906,268.670 257.527,269.000 257.857 C 269.330 258.187,269.600 258.962,269.600 259.580 C 269.600 260.197,269.858 260.917,270.174 261.179 C 270.490 261.441,270.864 262.183,271.006 262.828 C 271.148 263.472,271.429 264.000,271.632 264.000 C 271.834 264.000,272.000 264.414,272.000 264.920 C 272.000 265.426,272.202 266.042,272.448 266.288 C 273.347 267.187,274.668 271.064,274.360 271.898 C 273.968 272.957,269.945 274.800,268.023 274.800 C 266.529 274.800,264.800 272.603,264.800 270.705 C 264.800 270.371,264.530 269.874,264.200 269.600 C 263.870 269.326,263.594 268.719,263.587 268.251 C 263.580 267.783,263.310 267.051,262.987 266.624 C 262.664 266.196,262.400 265.454,262.400 264.973 C 262.400 264.492,262.130 263.874,261.800 263.600 C 261.470 263.326,261.200 262.696,261.200 262.200 C 261.200 261.704,260.930 261.074,260.600 260.800 C 260.270 260.526,259.994 259.919,259.987 259.451 C 259.980 258.983,259.710 258.251,259.387 257.824 C 259.064 257.396,258.800 256.654,258.800 256.173 C 258.800 255.692,258.542 255.083,258.226 254.821 C 257.910 254.559,257.536 253.819,257.395 253.177 C 257.254 252.535,256.972 251.906,256.769 251.781 C 256.566 251.655,256.395 251.068,256.388 250.476 C 256.377 249.552,256.318 249.499,255.968 250.100 C 255.744 250.485,255.342 250.800,255.076 250.800 C 254.810 250.800,254.368 251.160,254.093 251.600 C 253.818 252.040,253.426 252.400,253.221 252.400 C 253.017 252.400,252.258 252.940,251.536 253.600 C 250.813 254.260,249.812 254.800,249.311 254.800 C 248.768 254.800,248.400 255.042,248.400 255.400 C 248.400 255.730,248.207 256.000,247.971 256.000 C 247.736 256.000,247.273 256.270,246.943 256.600 C 245.724 257.819,244.572 256.557,245.733 255.274 C 246.274 254.676,246.390 252.479,246.560 239.589 C 246.801 221.297,246.774 222.000,247.228 222.000 C 247.433 222.000,247.600 221.295,247.600 220.433 C 247.600 219.106,247.840 218.675,248.713 218.432 C 248.776 218.414,249.442 219.015,250.193 219.767 M196.157 238.233 C 196.291 238.581,196.400 243.075,196.400 248.219 L 196.400 257.572 195.213 258.786 L 194.027 260.000 158.113 259.995 C 138.361 259.992,121.795 259.881,121.300 259.748 L 120.400 259.507 120.400 248.553 L 120.400 237.600 158.157 237.600 C 192.218 237.600,195.938 237.662,196.157 238.233 M270.948 283.300 C 271.081 283.795,271.192 288.281,271.195 293.269 L 271.200 302.338 269.969 303.569 L 268.738 304.800 196.069 304.795 C 123.063 304.789,121.600 304.769,121.600 303.753 C 121.600 303.449,121.330 303.200,121.000 303.200 C 120.482 303.200,120.400 301.778,120.400 292.800 L 120.400 282.400 195.553 282.400 L 270.707 282.400 270.948 283.300 " stroke="none" fill="#0474c4" fill-rule="evenodd"></path><path id="path2" d="M105.010 57.093 C 103.916 57.180,102.814 57.422,102.562 57.632 C 102.309 57.841,101.198 58.281,100.093 58.609 C 98.988 58.938,97.980 59.475,97.854 59.803 C 97.728 60.131,97.250 60.400,96.791 60.400 C 95.860 60.400,93.274 62.607,93.703 63.036 C 93.853 63.186,94.472 62.745,95.077 62.055 C 95.683 61.365,96.569 60.800,97.046 60.800 C 97.524 60.800,98.018 60.530,98.145 60.200 C 98.294 59.812,98.913 59.600,99.899 59.600 C 100.927 59.600,101.645 59.340,102.107 58.800 C 102.621 58.200,103.287 58.000,104.772 58.000 C 105.862 58.000,106.864 57.820,107.000 57.600 C 107.343 57.046,284.400 57.046,284.400 57.600 C 284.400 57.820,285.388 58.000,286.597 58.000 C 288.360 58.000,288.892 58.158,289.293 58.800 C 289.644 59.362,290.226 59.600,291.247 59.600 C 292.052 59.600,292.924 59.868,293.200 60.200 C 293.474 60.530,293.991 60.805,294.349 60.811 C 294.707 60.817,295.525 61.357,296.167 62.011 C 296.808 62.665,297.520 63.200,297.747 63.200 C 298.435 63.200,295.451 60.426,294.749 60.413 C 294.391 60.406,293.874 60.130,293.600 59.800 C 293.326 59.470,292.775 59.200,292.375 59.200 C 291.975 59.200,291.536 59.020,291.400 58.800 C 291.264 58.580,290.863 58.400,290.508 58.400 C 290.153 58.400,289.515 58.085,289.090 57.700 C 288.366 57.045,112.900 56.466,105.010 57.093 M89.900 65.233 C 89.515 65.655,89.200 66.234,89.200 66.520 C 89.200 67.262,88.362 68.000,87.520 68.000 C 87.089 68.000,86.813 68.281,86.832 68.700 C 86.850 69.118,86.944 69.199,87.065 68.900 C 87.176 68.625,87.621 68.400,88.054 68.400 C 88.575 68.400,89.038 67.927,89.426 67.000 C 89.748 66.230,90.169 65.600,90.363 65.600 C 90.556 65.600,90.818 65.330,90.945 65.000 C 91.257 64.187,90.753 64.300,89.900 65.233 M302.000 67.450 C 302.000 67.670,302.540 68.368,303.200 69.000 C 303.860 69.632,304.400 69.970,304.400 69.750 C 304.400 69.530,303.860 68.832,303.200 68.200 C 302.540 67.568,302.000 67.230,302.000 67.450 M304.400 71.103 C 304.400 71.549,304.670 72.018,305.000 72.145 C 305.330 72.271,305.600 72.811,305.600 73.345 C 305.600 73.878,305.870 74.418,306.200 74.545 C 306.530 74.671,306.800 75.119,306.800 75.538 C 306.800 75.958,307.070 76.526,307.400 76.800 C 307.781 77.116,308.000 78.000,308.000 79.220 C 308.000 80.396,308.233 81.376,308.600 81.743 C 309.131 82.273,309.200 95.949,309.200 200.000 C 309.200 304.051,309.131 317.727,308.600 318.257 C 308.233 318.624,308.000 319.604,308.000 320.780 C 308.000 322.000,307.781 322.884,307.400 323.200 C 307.070 323.474,306.800 324.014,306.800 324.400 C 306.800 324.786,306.530 325.326,306.200 325.600 C 305.870 325.874,305.600 326.507,305.600 327.006 C 305.600 327.506,305.330 328.018,305.000 328.145 C 304.670 328.271,304.403 328.786,304.406 329.287 C 304.412 330.196,304.414 330.196,304.968 329.200 C 306.286 326.833,307.200 324.917,307.200 324.523 C 307.200 324.289,307.470 323.874,307.800 323.600 C 308.179 323.285,308.400 322.403,308.400 321.200 C 308.400 319.997,308.621 319.115,309.000 318.800 C 309.531 318.359,309.600 304.669,309.600 199.994 C 309.600 95.200,309.531 81.659,309.000 81.455 C 308.567 81.289,308.400 80.610,308.400 79.013 C 308.400 77.796,308.232 76.800,308.027 76.800 C 307.822 76.800,307.537 76.395,307.395 75.900 C 306.589 73.096,304.400 69.590,304.400 71.103 M84.800 73.400 C 84.800 73.950,84.637 74.400,84.437 74.400 C 84.238 74.400,83.698 75.600,83.237 77.067 L 82.400 79.735 82.400 200.021 C 82.400 327.553,82.333 322.402,84.039 325.200 C 84.240 325.530,84.477 325.980,84.564 326.200 C 84.652 326.420,84.865 326.960,85.038 327.400 C 85.314 328.104,85.371 328.060,85.509 327.034 C 85.613 326.262,85.452 325.749,85.033 325.514 C 84.685 325.320,84.400 324.796,84.400 324.352 C 84.400 323.907,84.130 323.273,83.800 322.943 C 82.887 322.030,82.887 77.958,83.800 77.200 C 84.130 76.926,84.400 76.268,84.400 75.738 C 84.400 75.209,84.670 74.671,85.000 74.545 C 85.662 74.291,85.838 72.400,85.200 72.400 C 84.980 72.400,84.800 72.850,84.800 73.400 M107.455 78.200 C 107.329 78.530,106.769 78.800,106.213 78.800 C 105.656 78.800,105.200 78.992,105.200 79.227 C 105.200 79.728,106.621 79.355,107.789 78.546 C 109.038 77.682,282.213 77.735,282.545 78.600 C 282.671 78.930,283.067 79.200,283.423 79.200 C 283.780 79.200,284.775 79.867,285.636 80.682 L 287.200 82.165 287.200 199.996 L 287.200 317.827 285.087 319.914 L 282.975 322.000 195.567 322.000 C 126.177 322.000,108.056 321.897,107.656 321.500 C 107.252 321.099,107.205 321.139,107.419 321.700 C 107.672 322.364,112.234 322.400,195.470 322.400 L 283.254 322.400 285.427 320.302 L 287.600 318.205 287.600 200.055 L 287.600 81.906 286.047 80.353 C 285.193 79.499,284.225 78.800,283.896 78.800 C 283.567 78.800,283.074 78.530,282.800 78.200 C 282.042 77.287,107.806 77.287,107.455 78.200 M103.797 200.000 C 103.797 264.570,103.844 290.985,103.900 258.700 C 103.956 226.415,103.956 173.585,103.900 141.300 C 103.844 109.015,103.797 135.430,103.797 200.000 M120.498 130.900 L 120.600 165.000 183.685 165.101 L 246.771 165.202 247.207 164.301 C 247.602 163.487,247.589 163.468,247.077 164.101 C 246.540 164.765,243.152 164.797,183.755 164.701 L 121.000 164.600 121.000 130.700 C 121.000 112.055,120.864 96.800,120.698 96.800 C 120.532 96.800,120.442 112.145,120.498 130.900 M270.320 97.280 C 270.679 97.639,270.824 103.297,270.896 119.780 L 270.993 141.800 271.107 120.200 C 271.222 98.400,271.168 96.800,270.312 96.800 C 269.953 96.800,269.955 96.915,270.320 97.280 M142.581 120.106 C 142.474 120.385,142.434 125.380,142.493 131.206 L 142.600 141.800 195.400 141.800 L 248.200 141.800 248.400 131.000 C 248.529 124.028,248.458 120.096,248.200 119.906 C 247.433 119.342,142.798 119.541,142.581 120.106 M247.600 130.800 L 247.600 141.600 195.400 141.600 L 143.200 141.600 143.200 131.067 C 143.200 125.273,143.320 120.413,143.467 120.267 C 143.613 120.120,167.103 120.000,195.667 120.000 L 247.600 120.000 247.600 130.800 M265.973 146.373 C 263.568 148.779,261.600 150.881,261.600 151.045 C 261.600 151.209,262.407 150.501,263.393 149.472 C 264.380 148.442,265.370 147.600,265.593 147.600 C 265.817 147.600,266.000 147.420,266.000 147.200 C 266.000 146.681,267.481 145.200,268.000 145.200 C 268.220 145.200,268.400 145.010,268.400 144.777 C 268.400 144.545,268.980 143.825,269.689 143.177 C 270.398 142.530,270.836 142.000,270.662 142.000 C 270.489 142.000,268.379 143.968,265.973 146.373 M257.162 155.200 C 256.062 156.300,254.855 157.203,254.481 157.207 C 253.799 157.214,252.410 158.474,251.843 159.600 C 251.665 159.952,251.778 159.911,252.114 159.500 C 252.430 159.115,252.893 158.800,253.144 158.800 C 253.395 158.800,253.600 158.530,253.600 158.200 C 253.600 157.825,253.979 157.600,254.613 157.600 C 255.169 157.600,255.729 157.330,255.855 157.000 C 255.982 156.670,256.336 156.400,256.643 156.400 C 256.949 156.400,257.200 156.210,257.200 155.977 C 257.200 155.745,257.780 155.025,258.489 154.377 C 259.198 153.730,259.640 153.200,259.470 153.200 C 259.301 153.200,258.262 154.100,257.162 155.200 M223.300 174.265 C 222.083 174.756,223.045 175.000,226.200 175.000 C 229.460 175.000,230.324 174.764,228.967 174.243 C 228.222 173.957,224.023 173.973,223.300 174.265 M218.000 175.800 C 217.726 176.130,217.068 176.400,216.538 176.400 C 216.009 176.400,215.471 176.670,215.345 177.000 C 215.218 177.330,214.772 177.600,214.354 177.600 C 213.569 177.600,207.600 183.159,207.600 183.890 C 207.600 184.117,207.330 184.526,207.000 184.800 C 206.670 185.074,206.400 185.617,206.400 186.006 C 206.400 186.396,206.130 186.818,205.800 186.945 C 205.465 187.073,205.200 187.667,205.201 188.287 C 205.202 189.191,205.483 188.860,206.701 186.523 C 208.547 182.980,213.153 178.000,214.584 178.000 C 214.835 178.000,215.250 177.790,215.507 177.533 C 216.052 176.988,218.397 176.067,220.400 175.611 L 221.800 175.292 220.149 175.246 C 219.122 175.217,218.310 175.427,218.000 175.800 M231.800 175.553 C 233.078 175.816,237.001 177.726,238.000 178.571 C 239.481 179.823,239.638 179.546,238.200 178.220 C 237.320 177.408,236.117 176.647,235.526 176.527 C 234.935 176.408,234.355 176.060,234.238 175.755 C 234.097 175.389,233.443 175.218,232.313 175.253 C 230.791 175.299,230.734 175.333,231.800 175.553 M223.254 178.998 C 222.514 179.329,221.429 179.600,220.843 179.600 C 220.257 179.600,219.423 179.846,218.989 180.146 C 218.555 180.446,217.792 180.820,217.293 180.975 C 216.264 181.297,213.593 183.600,214.250 183.600 C 214.485 183.600,215.110 183.243,215.639 182.807 C 216.167 182.371,216.786 181.861,217.013 181.673 C 217.241 181.484,217.916 181.207,218.513 181.057 C 219.111 180.907,219.600 180.608,219.600 180.392 C 219.600 180.177,220.376 180.000,221.324 180.000 C 222.271 180.000,223.396 179.736,223.824 179.413 C 224.842 178.642,227.365 178.634,228.000 179.400 C 228.274 179.730,229.091 180.000,229.817 180.000 C 231.201 180.000,233.575 181.048,234.120 181.900 C 234.296 182.175,234.661 182.400,234.932 182.400 C 235.202 182.400,235.688 182.782,236.012 183.249 C 236.335 183.716,236.825 184.333,237.100 184.620 C 237.375 184.908,237.600 185.415,237.600 185.748 C 237.600 186.395,238.316 187.017,238.662 186.671 C 239.130 186.203,236.163 182.432,234.438 181.303 C 231.079 179.104,225.561 177.967,223.254 178.998 M240.475 180.960 C 241.713 182.225,243.194 184.905,243.213 185.912 C 243.220 186.291,243.490 186.949,243.813 187.376 C 244.667 188.505,244.656 197.289,243.800 198.000 C 243.470 198.274,243.200 198.932,243.200 199.463 C 243.200 200.535,242.369 202.035,240.852 203.700 C 240.301 204.305,239.994 204.800,240.169 204.800 C 240.594 204.800,242.384 203.087,242.393 202.671 C 242.397 202.491,242.670 202.073,243.000 201.743 C 243.330 201.413,243.600 200.526,243.600 199.771 C 243.600 198.819,243.783 198.400,244.200 198.400 C 244.705 198.400,244.800 197.510,244.800 192.787 C 244.800 188.168,244.694 187.134,244.200 186.945 C 243.836 186.805,243.600 186.200,243.600 185.406 C 243.600 184.687,243.330 183.874,243.000 183.600 C 242.670 183.326,242.397 182.899,242.393 182.651 C 242.386 182.178,241.026 180.787,240.000 180.203 C 239.670 180.016,239.884 180.356,240.475 180.960 M212.391 185.287 C 210.946 187.093,209.602 189.893,209.587 191.127 C 209.580 191.717,209.310 192.549,208.987 192.976 C 208.194 194.025,208.175 201.044,208.960 202.886 C 209.267 203.609,209.823 204.939,210.195 205.843 C 210.979 207.752,214.600 211.600,215.611 211.600 C 215.991 211.600,216.526 211.870,216.800 212.200 C 217.074 212.530,217.681 212.779,218.149 212.754 C 218.924 212.711,218.931 212.690,218.228 212.510 C 217.804 212.402,217.206 212.063,216.900 211.757 C 216.593 211.451,216.094 211.200,215.790 211.200 C 215.083 211.200,211.200 207.334,211.200 206.630 C 211.200 206.337,210.930 205.874,210.600 205.600 C 210.270 205.326,210.000 204.618,210.000 204.027 C 210.000 203.436,209.736 202.604,209.413 202.176 C 208.572 201.064,208.562 194.181,209.400 193.343 C 209.730 193.013,210.000 192.113,210.000 191.343 C 210.000 190.573,210.270 189.673,210.600 189.343 C 210.930 189.013,211.200 188.415,211.200 188.014 C 211.200 187.613,211.470 187.182,211.800 187.055 C 212.130 186.929,212.400 186.549,212.400 186.213 C 212.400 185.876,212.561 185.600,212.757 185.600 C 213.109 185.600,213.732 184.398,213.500 184.167 C 213.435 184.102,212.936 184.606,212.391 185.287 M223.612 184.384 C 223.288 184.589,223.161 184.894,223.330 185.063 C 223.498 185.232,223.986 185.152,224.413 184.885 C 225.346 184.302,231.049 184.233,231.400 184.800 C 231.790 185.430,232.400 185.266,232.145 184.600 C 231.878 183.906,224.657 183.723,223.612 184.384 M220.145 185.800 C 220.018 186.130,219.647 186.400,219.321 186.400 C 218.512 186.400,213.997 191.112,214.013 191.938 C 214.023 192.442,214.210 192.362,214.796 191.600 C 215.219 191.050,215.966 190.082,216.456 189.448 C 217.404 188.222,220.885 185.828,222.207 185.494 C 222.725 185.363,222.544 185.277,221.687 185.246 C 220.857 185.217,220.290 185.420,220.145 185.800 M233.500 185.591 C 234.515 186.023,234.816 189.675,233.968 191.261 C 233.461 192.208,233.865 192.852,234.424 191.988 C 235.325 190.597,234.685 185.408,233.600 185.304 C 232.615 185.209,232.613 185.214,233.500 185.591 M238.846 188.651 C 238.815 189.759,239.022 190.482,239.475 190.851 C 240.076 191.340,240.114 191.312,239.821 190.600 C 239.640 190.160,239.357 189.170,239.192 188.400 L 238.892 187.000 238.846 188.651 M225.200 189.000 C 224.650 189.314,223.892 189.578,223.516 189.586 C 222.666 189.603,220.064 192.166,219.018 194.017 C 217.557 196.599,218.255 204.278,219.810 202.724 C 219.935 202.598,219.760 202.217,219.419 201.876 C 218.766 201.223,218.488 195.005,219.100 194.733 C 219.555 194.531,221.200 192.090,221.200 191.616 C 221.200 191.387,221.448 191.200,221.751 191.200 C 222.054 191.200,222.526 190.930,222.800 190.600 C 223.074 190.270,223.713 190.000,224.220 190.000 C 224.728 190.000,225.413 189.730,225.743 189.400 C 226.996 188.147,228.545 188.832,228.907 190.800 L 229.091 191.800 229.146 190.729 C 229.251 188.663,227.291 187.805,225.200 189.000 M120.581 189.306 C 120.474 189.585,120.434 194.580,120.493 200.406 L 120.600 211.000 158.300 211.102 C 179.035 211.158,196.000 211.068,196.000 210.902 C 196.000 210.736,179.077 210.647,158.393 210.704 L 120.787 210.808 120.893 200.104 L 121.000 189.400 158.462 189.400 C 179.066 189.400,195.840 189.265,195.738 189.100 C 195.387 188.532,120.799 188.737,120.581 189.306 M196.174 200.000 C 196.174 205.610,196.230 207.905,196.299 205.100 C 196.368 202.295,196.368 197.705,196.299 194.900 C 196.230 192.095,196.174 194.390,196.174 200.000 M204.267 190.667 C 204.120 190.813,204.018 191.578,204.041 192.367 L 204.082 193.800 204.377 192.565 C 204.539 191.886,204.802 191.121,204.960 190.865 C 205.265 190.372,204.718 190.215,204.267 190.667 M213.267 193.475 C 213.010 193.955,212.801 194.674,212.802 195.074 C 212.804 195.584,212.986 195.453,213.413 194.633 C 213.748 193.991,213.957 193.272,213.878 193.034 C 213.799 192.797,213.524 192.995,213.267 193.475 M227.867 193.067 C 227.720 193.213,227.600 194.274,227.600 195.424 C 227.600 196.913,227.427 197.581,227.000 197.745 C 226.670 197.871,226.400 198.226,226.400 198.533 C 226.400 198.840,225.508 199.925,224.417 200.945 C 223.327 201.965,222.691 202.800,223.004 202.800 C 223.724 202.800,226.252 200.297,226.582 199.256 C 226.719 198.825,227.094 198.254,227.415 197.987 C 227.763 197.699,228.000 196.802,228.000 195.775 C 228.000 194.825,228.180 193.936,228.400 193.800 C 228.620 193.664,228.800 193.383,228.800 193.176 C 228.800 192.741,228.256 192.677,227.867 193.067 M233.277 195.220 C 233.235 196.441,233.029 197.611,232.820 197.820 C 231.091 199.551,232.400 203.259,234.700 203.146 C 235.780 203.092,235.782 203.088,234.800 202.907 C 232.704 202.523,231.891 200.749,233.020 199.025 C 233.464 198.348,233.600 197.356,233.497 195.540 L 233.354 193.000 233.277 195.220 M239.067 195.467 C 238.920 195.613,238.800 196.401,238.800 197.218 C 238.800 198.049,238.536 198.921,238.200 199.200 C 237.870 199.474,237.600 200.078,237.600 200.543 C 237.600 201.187,237.790 201.033,238.400 199.896 C 238.840 199.075,239.200 197.963,239.200 197.425 C 239.200 196.887,239.380 196.336,239.600 196.200 C 239.820 196.064,240.000 195.783,240.000 195.576 C 240.000 195.141,239.456 195.077,239.067 195.467 M212.534 198.800 C 212.534 200.450,212.605 201.125,212.691 200.300 C 212.778 199.475,212.778 198.125,212.691 197.300 C 212.605 196.475,212.534 197.150,212.534 198.800 M204.061 203.800 C 204.008 205.102,204.586 206.347,205.035 205.898 C 205.189 205.745,205.126 205.390,204.895 205.110 C 204.665 204.829,204.394 204.150,204.293 203.600 C 204.126 202.695,204.104 202.714,204.061 203.800 M212.818 203.513 C 212.808 204.014,213.070 204.529,213.400 204.655 C 213.730 204.782,214.000 205.136,214.000 205.443 C 214.000 205.749,214.205 206.000,214.456 206.000 C 214.707 206.000,215.127 206.295,215.391 206.655 C 215.654 207.015,216.124 207.220,216.435 207.109 C 216.823 206.971,216.617 206.683,215.774 206.189 C 215.099 205.793,214.162 204.824,213.691 204.035 C 212.945 202.784,212.833 202.717,212.818 203.513 M226.344 205.187 C 225.539 205.858,225.505 205.975,226.113 205.987 C 226.504 205.994,226.929 205.730,227.055 205.400 C 227.349 204.636,228.800 204.612,228.800 205.371 C 228.800 206.069,229.882 207.205,230.529 207.187 C 230.788 207.179,230.631 206.864,230.181 206.487 C 229.730 206.109,229.240 205.485,229.093 205.100 C 228.738 204.173,227.514 204.212,226.344 205.187 M238.466 205.821 C 237.953 206.088,237.332 206.508,237.086 206.754 C 236.279 207.561,237.727 207.235,238.757 206.377 C 239.903 205.422,239.759 205.147,238.466 205.821 M224.084 206.615 C 223.660 207.096,223.670 207.200,224.141 207.200 C 224.457 207.200,224.818 206.930,224.945 206.600 C 225.236 205.841,224.760 205.849,224.084 206.615 M205.232 207.300 C 205.210 208.061,205.400 208.400,205.849 208.400 C 206.312 208.400,206.385 208.257,206.103 207.900 C 205.885 207.625,205.607 207.130,205.485 206.800 C 205.359 206.458,205.250 206.673,205.232 207.300 M218.700 207.489 C 219.415 207.578,220.585 207.578,221.300 207.489 C 222.015 207.401,221.430 207.328,220.000 207.328 C 218.570 207.328,217.985 207.401,218.700 207.489 M232.307 207.490 C 233.026 207.579,234.106 207.577,234.707 207.486 C 235.308 207.395,234.720 207.322,233.400 207.324 C 232.080 207.326,231.588 207.401,232.307 207.490 M206.400 209.368 C 206.400 210.266,210.848 214.800,211.729 214.800 C 212.240 214.800,211.941 214.402,210.743 213.488 C 209.797 212.767,208.433 211.403,207.712 210.457 C 206.978 209.495,206.400 209.016,206.400 209.368 M229.400 212.022 C 227.958 212.704,227.904 212.780,228.851 212.790 C 229.429 212.795,230.126 212.530,230.400 212.200 C 231.077 211.385,232.668 211.442,233.168 212.300 C 233.530 212.921,233.577 212.926,233.588 212.343 C 233.612 211.030,231.791 210.890,229.400 212.022 M221.913 213.095 C 223.076 213.176,224.876 213.176,225.913 213.093 C 226.951 213.011,226.000 212.945,223.800 212.946 C 221.600 212.947,220.751 213.014,221.913 213.095 M233.600 214.180 C 233.600 214.719,233.285 215.344,232.900 215.568 C 232.324 215.904,232.310 215.978,232.820 215.988 C 233.161 215.995,233.656 215.784,233.920 215.520 C 234.500 214.940,234.560 213.200,234.000 213.200 C 233.780 213.200,233.600 213.641,233.600 214.180 M215.298 216.500 C 215.388 216.775,215.988 217.053,216.631 217.118 L 217.800 217.235 216.654 216.618 C 215.267 215.870,215.085 215.854,215.298 216.500 M230.180 216.361 C 229.971 216.560,229.440 216.809,229.000 216.915 C 228.482 217.039,228.658 217.124,229.500 217.154 C 230.410 217.186,230.800 217.020,230.800 216.600 C 230.800 215.904,230.701 215.866,230.180 216.361 M220.900 217.496 C 222.165 217.575,224.235 217.575,225.500 217.496 C 226.765 217.416,225.730 217.351,223.200 217.351 C 220.670 217.351,219.635 217.416,220.900 217.496 M251.635 221.300 C 251.728 221.355,252.430 221.940,253.196 222.600 C 254.377 223.619,254.468 223.649,253.794 222.800 C 252.876 221.643,252.349 221.215,251.833 221.206 C 251.632 221.203,251.543 221.245,251.635 221.300 M246.829 223.300 C 246.814 224.015,246.729 227.480,246.641 231.000 C 246.490 236.997,246.500 237.110,246.802 232.800 C 246.979 230.270,247.243 226.805,247.389 225.100 C 247.558 223.127,247.510 222.000,247.256 222.000 C 247.036 222.000,246.845 222.585,246.829 223.300 M263.526 232.312 C 264.116 232.924,264.676 233.374,264.768 233.311 C 264.999 233.155,263.135 231.200,262.756 231.200 C 262.588 231.200,262.935 231.701,263.526 232.312 M120.400 248.600 C 120.400 254.650,120.535 259.600,120.700 259.600 C 120.865 259.600,121.000 254.650,121.000 248.600 C 121.000 242.550,120.865 237.600,120.700 237.600 C 120.535 237.600,120.400 242.550,120.400 248.600 M195.520 238.080 C 196.132 238.692,196.210 257.423,195.602 257.799 C 195.383 257.934,195.006 258.440,194.764 258.922 C 194.436 259.576,194.589 259.503,195.362 258.638 L 196.400 257.476 196.400 248.170 C 196.400 238.847,196.291 237.600,195.477 237.600 C 195.185 237.600,195.199 237.759,195.520 238.080 M274.384 242.475 C 275.446 243.615,275.418 244.302,274.300 244.518 C 273.498 244.672,273.515 244.697,274.457 244.746 C 275.043 244.776,275.612 244.547,275.732 244.233 C 275.944 243.680,274.475 241.600,273.872 241.600 C 273.705 241.600,273.936 241.994,274.384 242.475 M269.380 245.173 C 269.171 245.379,268.370 245.625,267.600 245.721 C 266.830 245.817,267.640 245.815,269.400 245.717 C 272.879 245.523,274.581 244.800,271.560 244.800 C 270.570 244.800,269.589 244.968,269.380 245.173 M263.846 246.325 C 263.674 246.603,264.052 247.902,264.714 249.309 C 265.359 250.679,266.178 252.430,266.534 253.200 C 267.008 254.224,267.184 254.379,267.191 253.776 C 267.196 253.324,266.936 252.604,266.613 252.176 C 266.290 251.749,266.019 251.130,266.010 250.800 C 266.002 250.470,265.705 249.660,265.351 249.000 C 264.997 248.340,264.582 247.357,264.429 246.816 C 264.241 246.149,264.053 245.991,263.846 246.325 M256.426 250.676 C 256.412 251.158,256.566 251.655,256.769 251.781 C 256.972 251.906,257.254 252.535,257.395 253.177 C 257.536 253.819,257.910 254.559,258.226 254.821 C 259.096 255.543,259.091 255.528,257.096 251.200 C 256.578 250.075,256.446 249.972,256.426 250.676 M253.400 251.674 C 252.960 251.922,251.970 252.615,251.200 253.215 C 250.430 253.815,249.440 254.396,249.000 254.506 C 248.340 254.672,248.377 254.715,249.211 254.754 C 249.823 254.782,250.740 254.326,251.536 253.600 C 252.258 252.940,252.996 252.400,253.176 252.400 C 253.355 252.400,253.726 252.130,254.000 251.800 C 254.588 251.092,254.477 251.068,253.400 251.674 M245.680 255.280 C 245.111 255.849,245.055 256.663,245.564 256.978 C 246.053 257.280,247.200 256.815,247.200 256.314 C 247.200 256.094,246.950 256.010,246.645 256.127 C 246.256 256.277,246.151 256.110,246.292 255.570 C 246.524 254.682,246.357 254.603,245.680 255.280 M267.214 255.051 C 267.252 255.993,268.371 257.423,268.386 256.549 C 268.394 256.081,268.130 255.474,267.800 255.200 C 267.470 254.926,267.206 254.859,267.214 255.051 M258.802 256.224 C 258.801 256.676,259.064 257.396,259.387 257.824 C 259.710 258.251,259.980 258.983,259.987 259.451 C 259.994 259.919,260.304 260.549,260.675 260.851 C 261.275 261.339,261.315 261.312,261.034 260.600 C 260.860 260.160,260.525 259.264,260.288 258.609 C 259.472 256.349,258.805 255.278,258.802 256.224 M268.400 257.954 C 268.400 258.149,268.669 258.824,268.998 259.454 C 269.633 260.673,269.920 259.700,269.357 258.233 C 269.099 257.561,268.400 257.358,268.400 257.954 M139.470 259.900 C 149.408 259.959,165.788 259.959,175.870 259.900 C 185.951 259.840,177.820 259.792,157.800 259.792 C 137.780 259.792,129.531 259.840,139.470 259.900 M269.648 261.000 C 270.252 262.358,270.773 263.550,271.222 264.600 C 271.645 265.588,271.766 265.667,271.907 265.048 C 272.002 264.634,271.895 264.182,271.671 264.044 C 271.447 263.905,271.141 263.306,270.992 262.712 C 270.843 262.119,270.440 261.400,270.096 261.116 C 269.752 260.832,269.550 260.780,269.648 261.000 M261.200 262.351 C 261.200 262.764,261.470 263.326,261.800 263.600 C 262.130 263.874,262.400 264.492,262.400 264.973 C 262.400 265.454,262.664 266.196,262.987 266.624 C 263.310 267.051,263.580 267.783,263.587 268.251 C 263.594 268.719,263.870 269.326,264.200 269.600 C 264.530 269.874,264.800 270.371,264.800 270.705 C 264.800 274.356,267.701 275.625,271.780 273.758 C 274.629 272.454,274.926 271.731,273.779 268.908 C 272.816 266.538,272.000 265.412,272.000 266.453 C 272.000 266.791,272.128 267.195,272.285 267.352 C 274.569 269.636,273.989 272.061,270.826 273.460 C 267.701 274.842,266.916 274.640,265.924 272.200 C 265.476 271.100,264.865 269.660,264.565 269.000 C 264.266 268.340,263.459 266.405,262.773 264.700 C 261.482 261.492,261.200 261.071,261.200 262.351 M120.400 292.800 C 120.400 298.520,120.535 303.200,120.700 303.200 C 120.865 303.200,120.949 298.610,120.887 292.998 L 120.774 282.796 195.787 282.898 C 237.044 282.954,270.800 282.865,270.800 282.700 C 270.800 282.535,236.960 282.400,195.600 282.400 L 120.400 282.400 120.400 292.800 M270.973 293.000 C 270.973 298.280,271.030 300.385,271.099 297.677 C 271.168 294.969,271.168 290.649,271.099 288.077 C 271.029 285.505,270.972 287.720,270.973 293.000 M159.332 304.700 C 179.534 304.757,212.474 304.757,232.532 304.700 C 252.589 304.643,236.060 304.596,195.800 304.596 C 155.540 304.596,139.129 304.643,159.332 304.700 M105.200 320.800 C 105.200 321.020,105.605 321.197,106.100 321.194 C 106.828 321.189,106.885 321.114,106.400 320.800 C 105.624 320.299,105.200 320.299,105.200 320.800 M302.846 331.419 C 302.321 331.973,301.976 332.510,302.080 332.613 C 302.183 332.716,302.749 332.260,303.337 331.600 C 304.627 330.152,304.198 329.994,302.846 331.419 M88.720 332.480 C 88.984 332.744,89.200 333.284,89.200 333.680 C 89.200 334.076,89.371 334.400,89.579 334.400 C 89.809 334.400,89.794 333.929,89.540 333.200 C 89.310 332.540,88.923 332.000,88.681 332.000 C 88.381 332.000,88.394 332.154,88.720 332.480 M90.400 334.779 C 90.400 335.281,91.992 336.941,92.237 336.696 C 92.331 336.602,91.956 336.038,91.404 335.442 C 90.852 334.846,90.400 334.548,90.400 334.779 M299.599 335.802 C 299.083 336.351,298.782 336.800,298.930 336.800 C 299.318 336.800,300.899 335.165,300.702 334.968 C 300.611 334.877,300.114 335.252,299.599 335.802 M93.709 337.600 C 94.269 338.040,94.923 338.400,95.163 338.400 C 95.403 338.400,95.240 338.040,94.800 337.600 C 94.360 337.160,93.706 336.800,93.346 336.800 C 92.862 336.800,92.956 337.008,93.709 337.600 M296.231 337.876 C 294.848 339.158,292.797 340.250,291.061 340.628 C 289.121 341.050,287.724 342.164,289.600 341.793 C 290.370 341.640,291.171 341.355,291.380 341.158 C 291.589 340.961,292.062 340.800,292.431 340.800 C 292.800 340.800,293.326 340.530,293.600 340.200 C 293.874 339.870,294.427 339.600,294.829 339.600 C 295.231 339.600,295.704 339.369,295.880 339.086 C 296.056 338.803,296.719 338.173,297.354 337.686 C 297.989 337.199,298.257 336.800,297.950 336.800 C 297.643 336.800,296.870 337.284,296.231 337.876 M95.600 339.237 C 95.600 339.437,95.947 339.600,96.371 339.600 C 96.796 339.600,97.413 339.870,97.743 340.200 C 98.073 340.530,98.615 340.800,98.948 340.800 C 99.281 340.800,99.664 340.980,99.800 341.200 C 99.936 341.420,100.384 341.600,100.795 341.600 C 101.206 341.600,101.783 341.841,102.078 342.135 C 102.397 342.454,103.978 342.758,106.006 342.889 C 107.873 343.010,108.950 343.024,108.400 342.920 C 107.850 342.817,107.229 342.568,107.020 342.366 C 106.811 342.165,105.695 342.000,104.540 342.000 C 103.203 342.000,102.324 341.804,102.120 341.461 C 101.944 341.164,101.103 340.812,100.250 340.678 C 99.398 340.544,98.408 340.182,98.050 339.874 C 97.241 339.175,95.600 338.750,95.600 339.237 M284.400 342.375 C 284.400 342.581,283.905 342.826,283.300 342.921 C 282.695 343.015,283.370 343.011,284.800 342.911 C 287.906 342.695,289.035 342.000,286.280 342.000 C 285.246 342.000,284.400 342.169,284.400 342.375 " stroke="none" fill="#147bcc" fill-rule="evenodd"></path><path id="path3" d="M107.000 57.600 C 106.864 57.820,105.876 58.000,104.805 58.000 C 103.568 58.000,102.628 58.229,102.229 58.629 C 101.352 59.505,101.439 59.870,102.331 59.062 C 102.786 58.650,103.751 58.400,104.883 58.400 C 106.012 58.400,106.891 58.172,107.200 57.800 C 107.474 57.470,107.597 57.200,107.473 57.200 C 107.349 57.200,107.136 57.380,107.000 57.600 M284.000 57.800 C 284.329 58.196,285.223 58.400,286.629 58.400 C 288.237 58.400,288.860 58.572,289.168 59.100 C 289.392 59.485,289.581 59.611,289.588 59.380 C 289.614 58.479,288.550 58.000,286.520 58.000 C 285.354 58.000,284.400 57.820,284.400 57.600 C 284.400 57.380,284.198 57.200,283.951 57.200 C 283.641 57.200,283.656 57.385,284.000 57.800 M98.145 60.200 C 98.018 60.530,97.520 60.800,97.038 60.800 C 96.556 60.800,95.722 61.331,95.181 61.983 C 94.642 62.634,93.840 63.177,93.400 63.190 C 92.960 63.203,92.150 63.690,91.600 64.272 C 90.649 65.277,90.644 65.306,91.500 64.851 C 91.995 64.587,92.400 64.198,92.400 63.986 C 92.400 63.774,92.813 63.600,93.319 63.600 C 93.849 63.600,94.653 63.100,95.219 62.417 C 95.758 61.766,96.565 61.226,97.011 61.217 C 97.815 61.200,99.569 59.600,98.784 59.600 C 98.559 59.600,98.271 59.870,98.145 60.200 M292.000 59.884 C 292.330 60.005,292.870 60.326,293.200 60.596 C 293.944 61.205,295.683 61.658,295.377 61.163 C 295.254 60.963,294.825 60.800,294.425 60.800 C 294.025 60.800,293.474 60.530,293.200 60.200 C 292.926 59.870,292.409 59.614,292.051 59.632 C 291.507 59.658,291.498 59.699,292.000 59.884 M296.446 62.736 C 297.489 63.542,299.337 64.145,298.977 63.563 C 298.854 63.363,298.425 63.200,298.025 63.200 C 297.625 63.200,297.074 62.930,296.800 62.600 C 296.526 62.270,296.120 62.000,295.897 62.000 C 295.674 62.000,295.921 62.331,296.446 62.736 M301.491 66.899 C 301.610 67.395,302.206 68.340,302.815 69.000 C 303.425 69.660,304.010 70.560,304.116 71.000 C 304.302 71.779,304.308 71.778,304.354 70.975 C 304.379 70.521,303.860 69.632,303.200 69.000 C 302.540 68.368,302.000 67.535,302.000 67.149 C 302.000 66.763,301.837 66.346,301.637 66.223 C 301.438 66.100,301.372 66.404,301.491 66.899 M86.846 69.729 C 86.821 70.129,86.530 70.727,86.200 71.057 C 85.870 71.387,85.600 72.255,85.600 72.986 C 85.600 73.798,85.367 74.404,85.000 74.545 C 84.670 74.671,84.411 75.186,84.425 75.687 C 84.451 76.598,84.451 76.598,84.797 75.741 C 84.988 75.268,85.337 74.763,85.572 74.617 C 85.807 74.472,86.000 73.793,86.000 73.108 C 86.000 72.423,86.286 71.547,86.635 71.161 C 86.984 70.775,87.185 70.131,87.081 69.730 C 86.899 69.025,86.891 69.025,86.846 69.729 M306.800 76.702 C 306.800 76.922,307.070 77.326,307.400 77.600 C 307.735 77.878,308.000 77.921,308.000 77.698 C 308.000 77.478,307.730 77.074,307.400 76.800 C 307.065 76.522,306.800 76.479,306.800 76.702 M83.680 77.280 C 83.416 77.544,83.229 78.399,83.264 79.180 L 83.328 80.600 83.497 79.202 C 83.589 78.432,83.853 77.577,84.082 77.302 C 84.612 76.662,84.314 76.646,83.680 77.280 M195.052 77.500 C 271.979 77.590,282.362 77.673,282.801 78.201 C 283.074 78.530,283.567 78.800,283.896 78.800 C 284.225 78.800,285.193 79.499,286.047 80.353 L 287.600 81.906 287.600 200.055 L 287.600 318.205 285.427 320.302 L 283.254 322.400 195.470 322.400 C 117.808 322.400,107.659 322.331,107.455 321.800 C 107.329 321.470,106.814 321.221,106.313 321.246 C 105.495 321.288,105.483 321.313,106.200 321.491 C 106.640 321.600,107.144 321.939,107.320 322.245 C 107.591 322.716,120.962 322.800,195.532 322.800 L 283.425 322.800 285.713 320.488 L 288.000 318.177 288.000 200.004 L 288.000 81.830 286.317 80.115 C 285.391 79.172,284.333 78.400,283.966 78.400 C 283.598 78.400,283.074 78.130,282.800 77.800 C 282.360 77.269,272.200 77.211,195.051 77.299 L 107.800 77.398 195.052 77.500 M104.800 79.551 C 104.800 79.964,104.530 80.526,104.200 80.800 C 103.870 81.074,103.621 81.681,103.646 82.149 C 103.689 82.924,103.710 82.931,103.890 82.228 C 103.998 81.804,104.337 81.206,104.643 80.900 C 105.167 80.376,105.435 78.800,105.000 78.800 C 104.890 78.800,104.800 79.138,104.800 79.551 M121.062 97.100 C 120.960 97.265,154.474 97.400,195.538 97.400 L 270.200 97.400 270.303 119.553 C 270.400 140.283,270.362 141.743,269.703 142.275 C 269.067 142.790,269.085 142.803,269.900 142.408 L 270.800 141.972 270.800 119.866 C 270.800 103.206,270.682 97.642,270.320 97.280 C 269.774 96.734,121.398 96.555,121.062 97.100 M142.567 119.167 C 142.475 119.258,142.400 119.438,142.400 119.567 C 142.400 119.695,166.331 119.800,195.580 119.800 C 224.829 119.800,248.626 119.666,248.461 119.501 C 248.156 119.196,142.870 118.864,142.567 119.167 M248.396 131.200 L 248.200 141.800 195.300 141.800 C 160.211 141.800,142.445 141.935,142.533 142.200 C 142.759 142.877,247.217 142.915,248.107 142.239 C 248.756 141.746,248.805 140.845,248.703 131.151 L 248.593 120.600 248.396 131.200 M265.608 146.192 C 264.641 147.177,263.929 148.042,264.025 148.113 C 264.121 148.185,265.047 147.379,266.083 146.322 C 267.118 145.265,267.831 144.400,267.666 144.400 C 267.501 144.400,266.575 145.206,265.608 146.192 M260.061 151.816 C 258.884 153.017,258.038 154.000,258.180 154.000 C 258.493 154.000,262.400 150.129,262.400 149.819 C 262.400 149.450,262.269 149.562,260.061 151.816 M255.400 156.400 C 255.002 156.840,254.794 157.200,254.938 157.200 C 255.082 157.200,255.560 156.840,256.000 156.400 C 256.440 155.960,256.648 155.600,256.462 155.600 C 256.276 155.600,255.798 155.960,255.400 156.400 M249.834 160.805 L 246.267 164.405 183.572 164.302 C 149.089 164.246,120.960 164.335,121.062 164.500 C 121.164 164.665,149.415 164.800,183.842 164.800 L 246.438 164.800 250.019 161.181 C 253.183 157.984,253.875 157.192,253.500 157.203 C 253.445 157.204,251.795 158.825,249.834 160.805 M222.800 175.153 C 222.030 175.290,223.560 175.404,226.200 175.408 C 229.312 175.412,230.437 175.315,229.400 175.130 C 227.517 174.796,224.763 174.805,222.800 175.153 M218.400 176.200 C 217.108 176.939,217.767 176.944,219.800 176.212 C 221.068 175.755,221.193 175.634,220.400 175.632 C 219.850 175.630,218.950 175.886,218.400 176.200 M231.600 175.867 C 234.612 176.893,237.129 178.261,238.750 179.756 C 240.369 181.248,242.788 184.877,242.832 185.881 C 242.853 186.372,242.932 186.427,243.080 186.055 C 244.073 183.558,235.343 175.491,231.800 175.631 C 231.243 175.654,231.182 175.725,231.600 175.867 M215.600 177.400 C 215.326 177.730,214.883 178.000,214.615 178.000 C 213.286 178.000,208.631 182.857,206.946 186.001 C 205.619 188.479,204.147 192.680,204.487 193.021 C 204.599 193.132,204.922 192.363,205.207 191.311 C 206.450 186.719,212.422 178.408,214.486 178.397 C 214.769 178.396,215.540 178.037,216.200 177.600 C 216.972 177.088,217.168 176.804,216.749 176.803 C 216.391 176.801,215.874 177.070,215.600 177.400 M221.400 179.011 C 220.045 179.458,219.962 179.543,220.854 179.569 C 221.434 179.586,222.514 179.337,223.254 179.016 C 224.959 178.275,223.642 178.272,221.400 179.011 M228.036 178.796 C 228.385 179.001,229.529 179.360,230.576 179.595 C 234.667 180.511,238.311 184.162,239.259 188.292 C 239.926 191.199,240.138 195.622,239.635 196.125 C 239.396 196.364,239.209 197.019,239.219 197.580 C 239.234 198.378,239.371 198.220,239.850 196.853 C 241.698 191.575,238.618 182.854,234.069 180.483 C 231.691 179.243,226.153 177.695,228.036 178.796 M218.176 180.187 C 217.749 180.510,217.580 180.775,217.800 180.775 C 218.020 180.775,218.549 180.510,218.976 180.187 C 219.404 179.864,219.573 179.600,219.353 179.600 C 219.133 179.600,218.604 179.864,218.176 180.187 M214.237 182.700 C 212.078 184.790,209.462 188.587,209.697 189.291 C 209.779 189.538,210.235 188.912,210.711 187.900 C 211.563 186.088,215.629 181.542,216.800 181.093 C 217.333 180.889,217.333 180.860,216.800 180.832 C 216.470 180.815,215.317 181.655,214.237 182.700 M224.580 184.761 C 224.371 184.960,223.930 185.207,223.600 185.310 C 223.270 185.412,223.540 185.393,224.200 185.265 C 225.988 184.921,230.432 184.964,231.800 185.340 L 233.000 185.669 231.854 185.035 C 230.594 184.337,225.238 184.135,224.580 184.761 M219.800 186.673 C 217.189 188.349,214.000 191.923,214.000 193.174 C 214.000 193.358,213.731 194.024,213.402 194.654 C 210.991 199.278,214.166 207.336,218.328 207.153 L 219.400 207.105 218.400 206.853 C 210.131 204.763,211.859 191.297,221.015 186.471 C 221.887 186.011,222.330 185.638,222.000 185.641 C 221.670 185.644,220.680 186.109,219.800 186.673 M243.425 187.400 C 243.585 187.840,243.847 188.920,244.008 189.800 L 244.300 191.400 244.350 189.776 C 244.379 188.823,244.139 187.832,243.767 187.376 C 243.144 186.611,243.139 186.611,243.425 187.400 M233.909 189.200 C 233.753 190.190,233.523 191.540,233.398 192.200 C 233.247 192.999,233.384 192.823,233.809 191.675 C 234.160 190.726,234.390 189.376,234.319 188.675 C 234.203 187.514,234.167 187.560,233.909 189.200 M224.000 189.000 C 223.422 189.330,223.253 189.572,223.600 189.572 C 223.930 189.572,224.650 189.314,225.200 189.000 C 225.778 188.670,225.947 188.428,225.600 188.428 C 225.270 188.428,224.550 188.686,224.000 189.000 M228.280 188.690 C 228.544 188.873,228.946 189.468,229.174 190.011 C 229.581 190.984,229.586 190.980,229.494 189.803 C 229.427 188.956,229.167 188.570,228.600 188.482 C 228.079 188.401,227.968 188.473,228.280 188.690 M121.063 189.498 C 120.960 189.664,137.695 189.753,158.251 189.696 L 195.626 189.592 195.513 200.176 C 195.451 205.998,195.538 210.623,195.707 210.454 C 195.876 210.285,195.966 205.478,195.907 199.773 L 195.800 189.400 158.525 189.298 C 138.024 189.242,121.166 189.332,121.063 189.498 M220.728 191.100 C 215.422 196.651,216.602 204.906,222.467 203.268 C 223.721 202.917,223.673 202.894,221.653 202.886 C 216.800 202.867,216.599 195.835,221.316 191.117 C 222.150 190.282,222.682 189.600,222.497 189.600 C 222.313 189.600,221.517 190.275,220.728 191.100 M209.124 191.000 C 208.976 191.660,208.731 192.560,208.579 193.000 C 208.338 193.696,208.389 193.682,208.977 192.895 C 209.348 192.397,209.593 191.497,209.522 190.895 L 209.391 189.800 209.124 191.000 M228.846 192.476 C 228.821 193.068,228.620 193.664,228.400 193.800 C 228.180 193.936,228.012 194.712,228.026 195.524 C 228.051 196.929,228.081 196.896,228.640 194.816 C 228.962 193.615,229.151 192.355,229.060 192.016 C 228.968 191.677,228.872 191.884,228.846 192.476 M204.153 198.200 C 204.153 200.840,204.218 201.868,204.297 200.484 C 204.375 199.101,204.374 196.941,204.295 195.684 C 204.216 194.428,204.152 195.560,204.153 198.200 M208.144 197.600 C 208.144 199.690,208.212 200.545,208.294 199.500 C 208.376 198.455,208.376 196.745,208.294 195.700 C 208.212 194.655,208.144 195.510,208.144 197.600 M232.712 195.600 C 232.554 196.590,232.329 197.940,232.211 198.600 C 232.093 199.260,232.100 199.530,232.227 199.200 C 232.355 198.870,232.638 198.228,232.858 197.773 C 233.077 197.318,233.199 196.238,233.128 195.373 L 232.998 193.800 232.712 195.600 M243.961 195.400 C 243.833 196.280,243.585 197.360,243.408 197.800 C 243.111 198.540,243.138 198.552,243.769 197.960 C 244.261 197.499,244.415 196.828,244.322 195.560 L 244.192 193.800 243.961 195.400 M227.041 198.463 C 226.094 199.815,226.262 200.283,227.246 199.033 C 227.711 198.442,227.999 197.866,227.886 197.753 C 227.774 197.640,227.393 197.960,227.041 198.463 M238.270 200.110 C 236.927 202.939,234.398 203.998,232.800 202.400 C 232.237 201.837,232.000 201.764,232.000 202.154 C 232.000 203.492,234.040 204.186,235.546 203.361 C 237.161 202.476,239.364 199.891,239.122 199.165 C 239.030 198.890,238.647 199.315,238.270 200.110 M242.684 200.061 C 241.939 202.889,238.295 206.098,235.000 206.829 C 233.806 207.093,233.807 207.095,235.251 207.147 C 236.109 207.178,236.906 206.955,237.200 206.600 C 237.474 206.270,237.908 206.000,238.166 206.000 C 239.344 206.000,243.357 200.863,243.106 199.676 C 243.006 199.202,242.880 199.317,242.684 200.061 M224.846 201.419 C 224.321 201.973,223.961 202.489,224.046 202.567 C 224.131 202.645,224.706 202.189,225.325 201.554 C 225.944 200.919,226.304 200.403,226.125 200.407 C 225.946 200.411,225.371 200.866,224.846 201.419 M208.426 202.187 C 208.169 206.061,214.079 212.387,218.800 213.291 C 219.790 213.481,221.124 213.742,221.764 213.873 C 223.284 214.182,229.475 213.266,230.950 212.514 C 231.964 211.997,232.170 211.999,232.702 212.530 C 233.584 213.412,233.040 215.046,231.701 215.535 C 230.959 215.806,230.837 215.947,231.326 215.968 C 232.594 216.024,233.600 215.223,233.600 214.160 C 233.600 211.797,231.901 210.842,230.289 212.300 C 229.626 212.900,228.672 213.000,223.600 213.000 C 218.527 213.000,217.574 212.900,216.910 212.300 C 216.485 211.915,215.863 211.600,215.528 211.600 C 214.584 211.600,210.948 207.675,210.194 205.843 C 208.968 202.863,208.452 201.795,208.426 202.187 M204.405 203.705 C 204.402 204.093,204.569 204.723,204.775 205.105 C 204.981 205.487,205.566 206.680,206.074 207.756 C 207.208 210.158,209.527 212.845,211.512 214.060 C 212.330 214.560,213.238 215.202,213.529 215.485 C 213.819 215.768,214.449 216.000,214.929 216.000 C 215.548 215.999,215.285 215.744,214.015 215.116 C 210.767 213.508,207.352 209.805,205.793 206.200 C 205.032 204.440,204.408 203.317,204.405 203.705 M226.094 204.812 C 224.571 206.197,224.726 206.374,226.388 205.146 C 227.061 204.648,227.876 204.379,228.342 204.501 C 228.909 204.649,229.078 204.549,228.927 204.155 C 228.590 203.275,227.508 203.526,226.094 204.812 M229.213 205.497 C 229.242 206.198,231.277 207.242,232.309 207.086 C 233.313 206.933,233.296 206.915,232.100 206.860 C 231.385 206.827,230.800 206.663,230.800 206.496 C 230.800 206.329,230.440 205.968,230.000 205.693 C 229.560 205.418,229.206 205.330,229.213 205.497 M223.859 206.274 C 223.708 206.425,222.823 206.672,221.893 206.824 L 220.200 207.100 221.800 207.144 C 223.359 207.187,224.800 206.667,224.355 206.222 C 224.233 206.100,224.010 206.123,223.859 206.274 M216.321 216.455 C 217.077 217.247,229.334 217.241,230.080 216.448 C 230.519 215.983,230.412 215.952,229.400 216.248 C 227.854 216.701,218.109 216.707,216.800 216.255 C 215.963 215.966,215.885 215.999,216.321 216.455 M247.214 226.700 C 245.746 248.098,246.077 258.428,248.127 255.145 C 248.383 254.735,248.850 254.400,249.165 254.400 C 249.479 254.400,250.021 254.153,250.369 253.852 C 250.716 253.551,252.220 252.460,253.712 251.428 L 256.424 249.551 257.245 251.476 C 257.696 252.534,258.333 254.030,258.660 254.800 C 258.987 255.570,259.411 256.560,259.603 257.000 C 259.795 257.440,260.869 260.050,261.989 262.800 C 263.109 265.550,264.270 268.340,264.568 269.000 C 264.866 269.660,265.476 271.100,265.924 272.200 C 266.916 274.640,267.701 274.842,270.826 273.460 C 274.349 271.902,274.362 271.847,272.326 267.200 C 272.085 266.650,271.643 265.615,271.344 264.900 C 271.045 264.185,270.543 263.015,270.230 262.300 C 269.434 260.488,268.642 258.571,267.626 256.000 C 266.495 253.137,266.310 252.710,264.786 249.469 C 263.453 246.632,263.504 246.193,265.200 245.888 C 265.929 245.758,265.793 245.694,264.700 245.654 C 263.042 245.594,262.481 247.306,263.800 248.400 C 264.130 248.674,264.400 249.110,264.400 249.370 C 264.400 249.630,265.311 251.993,266.424 254.621 C 267.538 257.250,268.637 259.850,268.866 260.400 C 269.096 260.950,269.524 261.940,269.818 262.600 C 271.556 266.508,272.000 267.597,272.000 267.946 C 272.000 268.160,272.301 268.859,272.669 269.500 C 273.591 271.107,273.233 271.701,270.597 272.950 C 267.780 274.283,267.088 274.085,266.199 271.689 C 265.814 270.650,265.265 269.260,264.979 268.600 C 264.693 267.940,263.530 265.150,262.394 262.400 C 261.258 259.650,259.732 255.960,259.002 254.200 C 258.273 252.440,257.573 250.681,257.447 250.291 C 257.081 249.157,256.033 249.015,254.869 249.941 C 254.281 250.409,252.810 251.448,251.600 252.250 C 250.390 253.052,248.925 254.034,248.345 254.432 C 247.765 254.831,247.180 255.047,247.045 254.912 C 246.671 254.538,246.780 242.322,247.198 237.800 C 247.401 235.600,247.693 230.598,247.847 226.685 C 248.000 222.771,248.236 219.501,248.370 219.418 C 248.504 219.336,249.816 220.377,251.286 221.734 C 252.755 223.090,254.732 224.914,255.679 225.787 C 256.625 226.661,258.390 228.262,259.600 229.347 C 263.090 232.475,271.253 240.072,272.690 241.528 C 274.752 243.619,274.244 244.381,270.780 244.395 C 269.999 244.398,269.189 244.566,268.980 244.769 C 268.771 244.972,268.060 245.215,267.400 245.309 C 266.301 245.466,266.324 245.485,267.676 245.540 C 268.488 245.573,269.264 245.420,269.400 245.200 C 269.536 244.980,270.334 244.800,271.174 244.800 C 273.486 244.800,275.200 244.361,275.200 243.770 C 275.200 243.262,268.859 236.803,268.358 236.801 C 268.225 236.800,266.858 235.585,265.319 234.100 C 260.528 229.475,252.665 222.157,251.200 220.959 C 250.430 220.329,249.656 219.585,249.480 219.307 C 248.193 217.267,247.765 218.660,247.214 226.700 M121.062 237.900 C 120.960 238.065,137.644 238.200,158.138 238.200 L 195.400 238.200 195.507 247.824 L 195.614 257.448 194.677 258.328 L 193.739 259.208 157.308 259.104 C 137.271 259.047,120.960 259.135,121.062 259.300 C 121.164 259.465,137.673 259.600,157.748 259.600 L 194.250 259.600 195.125 258.416 C 196.165 257.010,196.513 239.073,195.520 238.080 C 194.975 237.535,121.397 237.357,121.062 237.900 M270.314 292.491 C 270.418 301.250,270.365 302.178,269.714 302.911 C 269.017 303.697,269.021 303.705,269.900 303.244 C 270.817 302.763,271.386 283.610,270.500 283.061 C 270.335 282.959,270.251 287.202,270.314 292.491 M122.341 304.101 C 122.507 304.267,155.663 304.357,196.021 304.301 L 269.400 304.200 195.720 304.000 C 155.196 303.890,122.175 303.935,122.341 304.101 M103.646 317.851 C 103.621 318.319,103.859 318.917,104.176 319.180 C 104.493 319.443,104.828 320.050,104.922 320.529 L 105.091 321.400 105.146 320.529 C 105.175 320.049,104.949 319.407,104.643 319.100 C 104.337 318.794,103.998 318.196,103.890 317.772 C 103.710 317.069,103.689 317.076,103.646 317.851 M83.264 320.667 C 83.188 322.166,83.526 323.200,84.092 323.200 C 84.361 323.200,84.358 323.031,84.082 322.698 C 83.853 322.423,83.589 321.568,83.497 320.798 L 83.328 319.400 83.264 320.667 M84.446 324.313 C 84.421 324.814,84.670 325.329,85.000 325.455 C 85.392 325.606,85.600 326.229,85.600 327.255 C 85.600 328.282,85.808 328.905,86.200 329.055 C 86.530 329.182,86.800 329.706,86.800 330.219 C 86.800 330.733,86.947 331.244,87.128 331.355 C 87.308 331.467,87.375 331.013,87.278 330.347 C 87.180 329.681,86.852 329.042,86.550 328.925 C 86.215 328.797,86.000 328.112,86.000 327.177 C 86.000 326.286,85.767 325.505,85.445 325.320 C 85.139 325.144,84.800 324.640,84.691 324.200 C 84.513 323.483,84.488 323.495,84.446 324.313 M304.700 327.812 C 304.315 328.328,304.000 328.998,304.000 329.300 C 304.000 329.603,303.460 330.368,302.800 331.000 C 302.140 331.632,301.600 332.439,301.600 332.794 C 301.600 333.610,298.772 336.400,297.945 336.400 C 297.604 336.400,296.981 336.805,296.562 337.300 C 295.801 338.199,295.801 338.199,296.631 337.500 C 297.089 337.115,297.726 336.800,298.048 336.800 C 298.813 336.800,302.000 333.547,302.000 332.766 C 302.000 332.434,302.532 331.721,303.183 331.181 C 303.834 330.642,304.374 329.804,304.383 329.320 C 304.392 328.836,304.693 328.276,305.052 328.075 C 305.410 327.874,305.635 327.522,305.552 327.292 C 305.468 327.062,305.085 327.296,304.700 327.812 M88.400 331.892 C 88.730 332.017,89.132 332.318,89.294 332.560 C 89.475 332.831,89.590 332.732,89.594 332.300 C 89.598 331.830,89.305 331.610,88.700 331.632 C 88.099 331.653,87.999 331.739,88.400 331.892 M91.679 335.774 C 92.331 336.435,93.043 336.793,93.479 336.680 C 94.047 336.532,94.010 336.483,93.300 336.446 C 92.805 336.421,92.400 336.226,92.400 336.014 C 92.400 335.802,91.995 335.415,91.500 335.155 C 90.705 334.737,90.726 334.810,91.679 335.774 M94.407 337.042 C 94.414 337.424,96.400 339.437,96.400 339.063 C 96.400 338.941,95.950 338.356,95.400 337.762 C 94.850 337.169,94.403 336.844,94.407 337.042 M100.600 340.695 C 101.260 340.791,101.944 341.124,102.120 341.435 C 102.332 341.809,103.148 342.000,104.540 342.000 C 105.695 342.000,106.892 342.225,107.201 342.500 C 107.678 342.925,107.682 342.896,107.232 342.300 C 106.845 341.789,106.133 341.600,104.594 341.600 C 103.089 341.600,102.420 341.428,102.255 341.000 C 102.108 340.616,101.553 340.422,100.713 340.460 L 99.400 340.520 100.600 340.695 M289.149 341.100 C 288.672 341.709,288.678 341.740,289.200 341.343 C 289.530 341.092,290.160 340.798,290.600 340.689 C 291.360 340.503,291.357 340.490,290.549 340.446 C 290.081 340.421,289.451 340.715,289.149 341.100 M284.267 341.867 C 284.120 342.013,284.003 342.328,284.006 342.567 C 284.010 342.843,284.122 342.828,284.314 342.526 C 284.480 342.265,285.512 341.982,286.608 341.898 L 288.600 341.744 286.567 341.672 C 285.448 341.632,284.413 341.720,284.267 341.867 M152.300 343.100 C 176.115 343.157,215.085 343.157,238.900 343.100 C 262.715 343.043,243.230 342.996,195.600 342.996 C 147.970 342.996,128.485 343.043,152.300 343.100 " stroke="none" fill="#61a2d4" fill-rule="evenodd"></path><path id="path4" d="M107.200 57.800 C 106.885 58.179,106.003 58.400,104.800 58.400 C 103.597 58.400,102.715 58.621,102.400 59.000 C 102.126 59.330,101.292 59.600,100.547 59.600 C 99.687 59.600,98.942 59.892,98.507 60.400 C 98.130 60.840,97.457 61.208,97.011 61.217 C 96.565 61.226,95.758 61.766,95.219 62.417 C 94.679 63.068,93.922 63.600,93.536 63.600 C 92.547 63.600,89.600 66.511,89.600 67.488 C 89.600 68.070,89.260 68.368,88.400 68.540 C 87.466 68.727,87.200 68.993,87.200 69.741 C 87.200 70.270,86.930 70.926,86.600 71.200 C 86.270 71.474,86.000 72.295,86.000 73.025 C 86.000 73.755,85.836 74.454,85.635 74.579 C 85.434 74.703,84.849 75.658,84.335 76.702 L 83.400 78.600 83.400 200.200 C 83.400 315.366,83.437 321.852,84.100 322.789 C 84.485 323.333,84.800 324.079,84.800 324.446 C 84.800 324.814,85.070 325.218,85.400 325.345 C 85.792 325.495,86.000 326.118,86.000 327.145 C 86.000 328.136,86.211 328.795,86.571 328.934 C 86.885 329.054,87.200 329.658,87.271 330.276 C 87.373 331.166,87.630 331.426,88.500 331.527 C 89.308 331.620,89.600 331.875,89.600 332.489 C 89.600 333.424,92.509 336.400,93.424 336.400 C 93.749 336.400,94.626 337.030,95.374 337.800 C 96.121 338.570,97.031 339.200,97.395 339.200 C 97.759 339.200,98.327 339.470,98.657 339.800 C 98.987 340.130,99.880 340.400,100.641 340.400 C 101.502 340.400,102.112 340.627,102.255 341.000 C 102.420 341.428,103.089 341.600,104.594 341.600 C 105.980 341.600,106.873 341.806,107.200 342.200 C 107.958 343.113,283.794 343.113,284.145 342.200 C 284.310 341.769,284.984 341.600,286.538 341.600 C 287.974 341.600,288.870 341.398,289.200 341.000 C 289.474 340.670,290.284 340.400,291.000 340.400 C 291.716 340.400,292.526 340.130,292.800 339.800 C 293.074 339.470,293.601 339.200,293.971 339.200 C 294.340 339.200,295.254 338.570,296.000 337.800 C 296.746 337.030,297.645 336.400,297.997 336.400 C 298.804 336.400,301.600 333.573,301.600 332.758 C 301.600 332.423,302.140 331.632,302.800 331.000 C 303.460 330.368,304.000 329.535,304.000 329.149 C 304.000 328.763,304.198 328.325,304.441 328.175 C 304.683 328.025,305.136 327.339,305.447 326.651 C 305.758 325.963,306.164 325.130,306.349 324.800 C 307.664 322.460,308.000 321.461,308.000 319.887 C 308.000 318.785,308.230 317.907,308.600 317.600 C 309.513 316.842,309.513 83.158,308.600 82.400 C 308.221 82.085,308.000 81.203,308.000 80.000 C 308.000 78.797,307.779 77.915,307.400 77.600 C 307.070 77.326,306.800 76.668,306.800 76.138 C 306.800 75.609,306.530 75.071,306.200 74.945 C 305.870 74.818,305.600 74.398,305.600 74.011 C 305.600 73.624,305.240 72.850,304.800 72.291 C 304.360 71.731,304.000 71.021,304.000 70.712 C 304.000 70.403,303.460 69.632,302.800 69.000 C 302.140 68.368,301.600 67.593,301.600 67.278 C 301.600 66.530,298.663 63.600,297.914 63.600 C 297.595 63.600,296.808 63.065,296.167 62.411 C 295.525 61.757,294.744 61.217,294.431 61.211 C 294.119 61.205,293.556 60.922,293.181 60.583 C 292.806 60.243,291.802 59.856,290.950 59.722 C 290.097 59.588,289.256 59.236,289.080 58.939 C 288.876 58.594,287.992 58.400,286.629 58.400 C 285.223 58.400,284.329 58.196,284.000 57.800 C 283.560 57.270,273.247 57.200,195.600 57.200 C 117.953 57.200,107.640 57.270,107.200 57.800 M283.855 58.200 C 284.020 58.628,284.689 58.800,286.194 58.800 C 287.495 58.800,288.477 59.011,288.759 59.350 C 289.010 59.653,289.908 60.011,290.756 60.147 C 291.603 60.282,292.522 60.664,292.797 60.996 C 293.073 61.328,293.602 61.600,293.974 61.600 C 294.346 61.600,295.168 62.140,295.800 62.800 C 296.432 63.460,297.366 64.000,297.875 64.000 C 298.431 64.000,298.800 64.240,298.800 64.600 C 298.800 64.930,298.980 65.200,299.200 65.200 C 299.866 65.200,301.200 66.751,301.200 67.525 C 301.200 67.924,301.740 68.768,302.400 69.400 C 303.060 70.032,303.600 70.865,303.600 71.251 C 303.600 71.637,303.786 72.068,304.013 72.208 C 304.446 72.476,305.753 75.165,306.195 76.700 C 306.337 77.195,306.622 77.600,306.827 77.600 C 307.032 77.600,307.200 78.500,307.200 79.600 C 307.200 81.067,307.413 81.813,308.000 82.400 C 309.264 83.664,309.264 316.625,308.000 317.707 C 307.403 318.219,307.200 318.887,307.200 320.347 C 307.200 321.597,306.984 322.482,306.600 322.800 C 306.270 323.074,306.000 323.512,306.000 323.774 C 306.000 324.448,304.486 327.500,304.003 327.798 C 303.781 327.935,303.592 328.442,303.583 328.924 C 303.574 329.406,303.034 330.242,302.383 330.781 C 301.732 331.321,301.200 332.080,301.200 332.468 C 301.200 333.386,298.581 336.000,297.662 336.000 C 297.270 336.000,296.432 336.540,295.800 337.200 C 295.168 337.860,294.346 338.400,293.974 338.400 C 293.602 338.400,293.086 338.656,292.826 338.969 C 292.566 339.282,291.655 339.656,290.800 339.800 C 289.945 339.944,289.034 340.318,288.774 340.631 C 288.487 340.977,287.556 341.200,286.400 341.200 C 285.197 341.200,284.315 341.421,284.000 341.800 C 283.242 342.713,107.806 342.713,107.455 341.800 C 107.290 341.369,106.616 341.200,105.062 341.200 C 103.626 341.200,102.730 340.998,102.400 340.600 C 102.126 340.270,101.408 340.000,100.805 340.000 C 100.202 340.000,99.250 339.640,98.691 339.200 C 98.131 338.760,97.421 338.400,97.112 338.400 C 96.803 338.400,96.032 337.860,95.400 337.200 C 94.768 336.540,93.969 335.995,93.625 335.989 C 92.700 335.973,90.082 333.386,89.931 332.339 C 89.847 331.757,89.442 331.350,88.800 331.200 C 88.181 331.056,87.753 330.642,87.676 330.113 C 87.608 329.643,87.293 329.043,86.976 328.780 C 86.659 328.517,86.400 327.716,86.400 327.000 C 86.400 326.284,86.130 325.474,85.800 325.200 C 85.470 324.926,85.200 324.377,85.200 323.980 C 85.200 323.582,84.930 322.987,84.600 322.657 C 83.873 321.930,83.666 77.600,84.392 77.600 C 84.608 77.600,84.909 77.107,85.060 76.504 C 85.211 75.901,85.575 75.168,85.867 74.875 C 86.160 74.582,86.400 73.720,86.400 72.959 C 86.400 72.098,86.627 71.488,87.000 71.345 C 87.330 71.218,87.600 70.684,87.600 70.157 C 87.600 69.502,87.827 69.200,88.320 69.200 C 89.211 69.200,90.000 68.450,90.000 67.602 C 90.000 66.832,92.901 64.000,93.690 64.000 C 93.998 64.000,94.768 63.460,95.400 62.800 C 96.032 62.140,96.863 61.600,97.246 61.600 C 97.629 61.600,98.224 61.319,98.567 60.976 C 98.911 60.632,99.867 60.241,100.692 60.108 C 101.518 59.974,102.433 59.625,102.725 59.332 C 103.025 59.032,104.124 58.800,105.241 58.800 C 106.636 58.800,107.294 58.622,107.455 58.200 C 107.659 57.669,117.829 57.600,195.655 57.600 C 273.482 57.600,283.652 57.669,283.855 58.200 M107.221 77.374 C 106.959 77.690,106.217 78.064,105.572 78.206 C 104.665 78.405,104.400 78.685,104.400 79.444 C 104.400 79.984,104.130 80.529,103.800 80.655 C 103.269 80.859,103.200 94.490,103.200 200.000 C 103.200 305.510,103.269 319.141,103.800 319.345 C 104.130 319.471,104.400 320.035,104.400 320.597 C 104.400 321.420,104.641 321.668,105.634 321.867 C 106.313 322.003,106.963 322.358,107.077 322.657 C 107.252 323.112,121.554 323.200,195.453 323.200 L 283.619 323.200 286.010 320.854 L 288.400 318.508 288.400 200.043 L 288.400 81.579 286.611 79.789 C 285.626 78.805,284.476 78.000,284.053 78.000 C 283.631 78.000,283.182 77.730,283.055 77.400 C 282.714 76.510,107.960 76.484,107.221 77.374 M282.800 77.800 C 283.074 78.130,283.598 78.400,283.966 78.400 C 284.333 78.400,285.391 79.172,286.317 80.115 L 288.000 81.830 288.000 200.004 L 288.000 318.177 285.713 320.488 L 283.425 322.800 195.500 322.800 C 120.873 322.800,107.543 322.716,107.362 322.245 C 107.245 321.940,106.620 321.584,105.974 321.455 C 105.169 321.294,104.800 320.981,104.800 320.459 C 104.800 320.040,104.530 319.474,104.200 319.200 C 103.669 318.759,103.600 305.025,103.600 200.000 C 103.600 94.975,103.669 81.241,104.200 80.800 C 104.530 80.526,104.800 79.984,104.800 79.594 C 104.800 79.164,105.211 78.783,105.848 78.624 C 106.425 78.479,107.158 78.099,107.477 77.780 C 108.372 76.885,282.057 76.905,282.800 77.800 M120.985 97.699 C 120.879 97.975,120.840 113.050,120.897 131.200 L 121.000 164.200 183.635 164.301 L 246.270 164.402 249.835 160.804 C 251.796 158.825,253.691 157.204,254.047 157.203 C 254.403 157.201,258.230 153.669,262.551 149.353 L 270.407 141.506 270.303 119.453 L 270.200 97.400 195.688 97.299 C 136.289 97.218,121.137 97.300,120.985 97.699 M270.000 119.378 L 270.000 141.156 262.196 148.978 C 257.905 153.280,254.136 156.800,253.822 156.800 C 253.509 156.800,251.608 158.420,249.600 160.400 L 245.948 164.000 183.574 164.000 L 121.200 164.000 121.200 131.067 C 121.200 112.953,121.320 98.013,121.467 97.867 C 121.613 97.720,155.093 97.600,195.867 97.600 L 270.000 97.600 270.000 119.378 M142.181 118.905 C 142.075 119.182,142.035 124.717,142.094 131.205 L 142.200 143.000 195.023 143.101 C 247.730 143.203,247.848 143.201,248.723 142.386 C 249.887 141.302,250.111 120.908,248.977 119.289 L 248.355 118.400 195.365 118.400 C 153.083 118.400,142.336 118.502,142.181 118.905 M248.300 119.386 C 248.684 119.531,248.800 122.171,248.800 130.720 L 248.800 141.865 247.900 142.339 C 247.216 142.700,234.474 142.788,194.800 142.707 L 142.600 142.600 142.494 131.205 C 142.435 124.938,142.457 119.628,142.543 119.405 C 142.698 119.000,247.227 118.981,248.300 119.386 M222.243 175.622 C 201.879 179.035,197.371 209.522,216.269 216.024 C 221.428 217.799,232.441 216.569,233.048 214.150 C 233.458 212.517,232.416 211.740,230.948 212.584 L 229.800 213.244 231.084 213.035 C 233.964 212.567,232.718 214.841,229.660 215.636 C 224.818 216.895,216.025 216.278,213.969 214.535 C 213.621 214.241,213.209 214.000,213.052 214.000 C 212.301 214.000,207.200 208.822,207.200 208.061 C 207.200 207.732,206.961 207.179,206.669 206.831 C 203.012 202.481,204.712 189.961,209.865 183.285 C 217.907 172.865,237.090 173.771,241.879 184.796 C 242.215 185.568,242.571 185.985,242.671 185.722 C 243.196 184.337,238.583 179.040,235.600 177.603 C 234.610 177.126,233.497 176.576,233.126 176.381 C 231.253 175.394,225.850 175.018,222.243 175.622 M221.400 178.274 C 215.583 179.833,210.513 184.709,208.585 190.600 C 207.020 195.384,207.540 203.533,209.620 206.800 C 209.830 207.130,210.168 207.782,210.372 208.249 C 210.732 209.077,213.189 211.223,215.200 212.467 C 217.781 214.064,226.633 215.167,227.820 214.039 C 228.029 213.840,228.560 213.580,229.000 213.460 C 229.440 213.340,228.810 213.368,227.600 213.521 C 217.962 214.743,211.997 211.811,209.045 204.400 C 207.147 199.635,208.072 191.291,211.018 186.600 C 212.544 184.170,215.948 180.801,216.876 180.800 C 217.248 180.800,217.661 180.625,217.792 180.412 C 219.337 177.913,229.221 177.956,234.069 180.483 C 241.568 184.392,242.400 200.618,235.253 203.578 C 232.004 204.924,231.393 202.319,233.004 194.000 C 234.577 185.878,234.627 186.239,231.813 185.421 C 223.554 183.020,212.941 189.932,213.264 197.501 L 213.328 199.000 213.497 197.602 C 213.589 196.832,213.810 196.022,213.986 195.802 C 214.163 195.581,214.430 194.827,214.580 194.128 C 214.729 193.428,215.110 192.641,215.426 192.379 C 215.742 192.117,216.000 191.741,216.000 191.544 C 216.000 187.821,229.094 183.863,233.140 186.363 C 233.688 186.702,232.997 192.564,232.004 195.997 C 230.650 200.679,231.805 204.400,234.612 204.400 C 235.933 204.400,239.600 200.764,239.600 199.453 C 239.600 198.962,239.825 198.335,240.100 198.060 C 240.813 197.347,240.780 188.906,240.058 187.361 C 239.760 186.722,239.236 185.614,238.894 184.897 C 236.481 179.847,227.798 176.559,221.400 178.274 M242.990 187.800 C 243.648 192.341,243.676 193.485,243.195 196.127 C 242.584 199.481,242.016 200.764,240.091 203.140 C 236.715 207.307,230.148 207.647,229.367 203.696 C 229.003 201.854,228.699 201.824,226.969 203.455 C 221.870 208.264,215.608 207.341,213.788 201.511 C 213.270 199.853,213.253 199.839,213.227 201.077 C 213.108 206.752,222.362 209.087,226.562 204.443 C 227.348 203.574,228.800 203.289,228.800 204.004 C 228.800 206.549,233.844 207.721,237.396 206.002 C 242.577 203.494,246.007 193.022,243.425 187.600 L 242.759 186.200 242.990 187.800 M222.365 189.168 C 215.030 193.775,215.126 206.378,222.477 203.935 C 226.678 202.538,231.419 192.675,229.851 188.590 C 229.410 187.440,224.513 187.818,222.365 189.168 M229.297 190.600 C 228.970 196.982,226.165 202.267,222.578 203.257 C 218.562 204.366,216.181 200.760,217.820 196.052 C 219.608 190.920,222.786 188.369,227.200 188.523 L 229.400 188.600 229.297 190.600 M121.067 189.867 C 120.503 190.431,120.765 209.873,121.344 210.353 C 121.740 210.682,131.818 210.777,158.644 210.702 L 195.400 210.600 195.507 200.100 L 195.613 189.600 158.473 189.600 C 138.046 189.600,121.213 189.720,121.067 189.867 M195.200 200.202 L 195.200 210.404 158.300 210.302 L 121.400 210.200 121.293 200.100 L 121.186 190.000 158.193 190.000 L 195.200 190.000 195.200 200.202 M248.238 219.654 C 248.143 219.954,247.952 223.260,247.813 227.000 C 247.674 230.740,247.396 235.600,247.195 237.800 C 246.779 242.336,246.673 254.540,247.045 254.912 C 247.180 255.047,247.765 254.831,248.345 254.432 C 248.925 254.034,250.390 253.052,251.600 252.250 C 252.810 251.448,254.281 250.409,254.869 249.941 C 256.033 249.015,257.081 249.157,257.447 250.291 C 257.573 250.681,258.273 252.440,259.002 254.200 C 259.732 255.960,261.258 259.650,262.394 262.400 C 263.530 265.150,264.693 267.940,264.979 268.600 C 265.265 269.260,265.814 270.650,266.199 271.689 C 267.088 274.085,267.780 274.283,270.597 272.950 C 273.233 271.701,273.591 271.107,272.669 269.500 C 272.301 268.859,272.000 268.160,272.000 267.946 C 272.000 267.597,271.556 266.508,269.818 262.600 C 269.524 261.940,269.096 260.950,268.866 260.400 C 268.637 259.850,267.538 257.250,266.424 254.621 C 265.311 251.993,264.400 249.630,264.400 249.370 C 264.400 249.110,264.130 248.674,263.800 248.400 C 263.470 248.126,263.175 247.339,263.146 246.651 C 263.101 245.624,263.059 245.571,262.911 246.353 C 262.812 246.876,263.016 247.911,263.365 248.653 C 264.211 250.448,264.833 251.908,266.580 256.200 C 267.386 258.180,268.205 260.160,268.401 260.600 C 268.596 261.040,269.136 262.300,269.600 263.400 C 270.064 264.500,270.609 265.760,270.811 266.200 C 271.013 266.640,271.534 267.930,271.970 269.066 L 272.762 271.133 271.881 271.700 C 270.903 272.330,268.540 273.200,267.808 273.200 C 267.548 273.200,266.561 271.216,265.614 268.791 C 264.668 266.366,263.738 264.285,263.547 264.167 C 263.356 264.049,263.200 263.618,263.200 263.209 C 263.200 262.800,262.935 261.955,262.611 261.332 C 261.939 260.042,261.182 258.285,260.055 255.400 C 259.626 254.300,258.989 252.860,258.640 252.200 C 258.291 251.540,258.004 250.721,258.002 250.380 C 257.995 248.445,256.069 248.362,253.826 250.200 C 252.886 250.970,252.010 251.600,251.879 251.600 C 251.513 251.600,247.839 254.103,247.506 254.579 C 247.077 255.194,247.160 241.888,247.606 238.600 C 247.815 237.060,248.107 232.157,248.256 227.704 L 248.527 219.608 249.812 220.904 C 250.519 221.617,252.595 223.550,254.424 225.200 C 256.254 226.850,258.044 228.470,258.403 228.800 C 260.757 230.966,260.486 230.453,258.000 228.040 C 250.942 221.188,248.434 219.033,248.238 219.654 M261.200 230.949 C 261.200 231.227,265.538 235.458,269.320 238.868 C 273.578 242.708,274.016 243.427,272.300 243.758 C 271.805 243.854,270.320 244.136,269.000 244.385 C 263.919 245.343,263.188 245.579,266.000 245.354 C 267.430 245.239,268.771 244.978,268.980 244.773 C 269.189 244.568,269.999 244.398,270.780 244.395 C 275.651 244.376,275.473 244.010,266.590 235.742 C 263.955 233.291,261.665 231.146,261.500 230.976 C 261.335 230.806,261.200 230.794,261.200 230.949 M120.981 238.505 C 120.874 238.785,120.834 243.511,120.893 249.007 L 121.000 259.000 157.372 259.102 L 193.744 259.204 194.679 258.326 L 195.614 257.448 195.507 247.824 L 195.400 238.200 158.288 238.098 C 128.533 238.016,121.138 238.097,120.981 238.505 M195.200 247.800 C 195.200 256.667,195.155 257.245,194.400 258.000 C 193.612 258.788,193.067 258.800,157.400 258.800 L 121.200 258.800 121.200 248.867 C 121.200 243.403,121.320 238.813,121.467 238.667 C 121.613 238.520,138.263 238.400,158.467 238.400 L 195.200 238.400 195.200 247.800 M121.281 283.279 C 120.224 284.336,120.655 302.049,121.763 303.100 L 122.713 304.000 195.856 303.987 L 269.000 303.975 269.707 303.003 C 270.344 302.127,270.404 301.085,270.307 292.515 L 270.200 283.000 195.981 282.899 C 138.586 282.821,121.653 282.907,121.281 283.279 M270.000 292.600 C 270.000 301.467,269.955 302.045,269.200 302.800 C 268.406 303.594,267.867 303.600,195.600 303.600 C 123.333 303.600,122.794 303.594,122.000 302.800 C 121.192 301.992,120.702 284.232,121.467 283.467 C 121.613 283.320,155.093 283.200,195.867 283.200 L 270.000 283.200 270.000 292.600 " stroke="none" fill="#7cbce4" fill-rule="evenodd"></path></g></svg>